<svg xmlns="http://www.w3.org/2000/svg" viewBox="0 0 193.12 57.22"><defs><style>.cls-1{fill:#a6a6a6;}.cls-2{fill:#fff;}</style></defs><title>appstore</title><g id="Layer_2" data-name="Layer 2"><g id="Layer_5" data-name="Layer 5"><rect width="193.12" height="57.22" rx="7.15" ry="7.15"/><path class="cls-1" d="M186,1.14a6,6,0,0,1,6,6V50.07a6,6,0,0,1-6,6H7.15a6,6,0,0,1-6-6V7.15a6,6,0,0,1,6-6H186M186,0H7.15A7.17,7.17,0,0,0,0,7.15V50.07a7.17,7.17,0,0,0,7.15,7.15H186a7.17,7.17,0,0,0,7.15-7.15V7.15A7.17,7.17,0,0,0,186,0Z"/><g id="_Group_" data-name="&lt;Group&gt;"><g id="_Group_2" data-name="&lt;Group&gt;"><g id="_Group_3" data-name="&lt;Group&gt;"><path id="_Path_" data-name="&lt;Path&gt;" class="cls-2" d="M44.33,28.74a8.2,8.2,0,0,1,3.9-6.88,8.39,8.39,0,0,0-6.61-3.57C38.84,18,36.15,20,34.73,20s-3.63-1.64-6-1.59a8.8,8.8,0,0,0-7.41,4.52c-3.2,5.54-.81,13.69,2.25,18.18,1.53,2.19,3.33,4.65,5.68,4.56s3.15-1.46,5.93-1.46,3.55,1.46,5.95,1.41,4-2.2,5.5-4.42A18.15,18.15,0,0,0,49.16,36,7.92,7.92,0,0,1,44.33,28.74Z"/><path id="_Path_2" data-name="&lt;Path&gt;" class="cls-2" d="M39.81,15.34a8.07,8.07,0,0,0,1.85-5.78,8.21,8.21,0,0,0-5.31,2.75,7.68,7.68,0,0,0-1.89,5.57A6.79,6.79,0,0,0,39.81,15.34Z"/></g></g><path class="cls-2" d="M72.07,37.82H65.3l-1.63,4.8H60.8l6.41-17.76h3l6.41,17.76H73.69ZM66,35.61h5.37l-2.65-7.79h-.07Z"/><path class="cls-2" d="M90.46,36.15c0,4-2.15,6.61-5.4,6.61A4.39,4.39,0,0,1,81,40.49h-.06v6.41H78.26V29.67h2.57v2.15h0A4.59,4.59,0,0,1,85,29.54C88.29,29.54,90.46,32.14,90.46,36.15Zm-2.73,0c0-2.62-1.36-4.35-3.42-4.35s-3.4,1.76-3.4,4.35,1.37,4.36,3.4,4.36S87.73,38.8,87.73,36.15Z"/><path class="cls-2" d="M104.72,36.15c0,4-2.15,6.61-5.4,6.61a4.39,4.39,0,0,1-4.07-2.27h-.06v6.41H92.52V29.67h2.57v2.15h0a4.59,4.59,0,0,1,4.12-2.29C102.55,29.54,104.72,32.14,104.72,36.15Zm-2.73,0c0-2.62-1.36-4.35-3.42-4.35s-3.4,1.76-3.4,4.35,1.37,4.36,3.4,4.36S102,38.8,102,36.15Z"/><path class="cls-2" d="M114.14,37.68c.2,1.76,1.91,2.92,4.25,2.92s3.85-1.16,3.85-2.75c0-1.38-1-2.2-3.27-2.77l-2.3-.55c-3.26-.79-4.78-2.31-4.78-4.79,0-3.06,2.67-5.17,6.46-5.17s6.33,2.11,6.41,5.17h-2.68c-.16-1.77-1.63-2.84-3.77-2.84S114.7,28,114.7,29.55c0,1.26.94,2,3.23,2.56l2,.48c3.64.86,5.16,2.33,5.16,4.92,0,3.32-2.65,5.4-6.86,5.4-3.94,0-6.6-2-6.77-5.25Z"/><path class="cls-2" d="M130.78,26.61v3.06h2.46v2.11h-2.46v7.14c0,1.11.49,1.63,1.58,1.63a8.31,8.31,0,0,0,.87-.06v2.09a7.3,7.3,0,0,1-1.48.12c-2.62,0-3.64-1-3.64-3.5V31.78h-1.88V29.67h1.88V26.61Z"/><path class="cls-2" d="M134.67,36.15c0-4.07,2.4-6.64,6.14-6.64S147,32.07,147,36.15s-2.38,6.64-6.14,6.64S134.67,40.24,134.67,36.15Zm9.58,0c0-2.8-1.28-4.45-3.44-4.45s-3.43,1.66-3.43,4.45,1.28,4.44,3.43,4.44S144.25,39,144.25,36.15Z"/><path class="cls-2" d="M149.15,29.67h2.54v2.2h.06a3.09,3.09,0,0,1,3.12-2.34,4.1,4.1,0,0,1,.91.1v2.49a3.72,3.72,0,0,0-1.19-.16,2.68,2.68,0,0,0-2.77,3v7.68h-2.66Z"/><path class="cls-2" d="M168,38.82c-.36,2.35-2.65,4-5.58,4-3.77,0-6.11-2.52-6.11-6.57s2.35-6.7,6-6.7,5.84,2.46,5.84,6.39v.91H159V37a3.37,3.37,0,0,0,3.48,3.67,2.93,2.93,0,0,0,3-1.82ZM159,35h6.47a3.11,3.11,0,0,0-3.18-3.29A3.28,3.28,0,0,0,159,35Z"/></g><g id="_Group_4" data-name="&lt;Group&gt;"><path class="cls-2" d="M65.67,11.49c2.53,0,4,1.56,4,4.24S68.21,20,65.67,20H62.58V11.49Zm-1.76,7.33h1.61c1.79,0,2.81-1.11,2.81-3.07s-1-3.05-2.81-3.05H63.91Z"/><path class="cls-2" d="M71.18,16.8c0-2.08,1.16-3.34,3-3.34s3,1.27,3,3.34-1.15,3.35-3,3.35S71.18,18.89,71.18,16.8Zm4.77,0c0-1.4-.63-2.21-1.73-2.21s-1.73.82-1.73,2.21S73.11,19,74.22,19,75.95,18.2,75.95,16.8Z"/><path class="cls-2" d="M85.33,20H84l-1.33-4.74h-.1L81.25,20H79.95l-1.78-6.44h1.29l1.15,4.92h.09L82,13.58h1.22l1.32,4.92h.1l1.15-4.92H87.1Z"/><path class="cls-2" d="M88.59,13.58h1.22v1h.09a1.93,1.93,0,0,1,1.92-1.15,2.1,2.1,0,0,1,2.23,2.4V20H92.79V16.17c0-1-.45-1.55-1.39-1.55a1.48,1.48,0,0,0-1.54,1.63V20H88.59Z"/><path class="cls-2" d="M96.09,11.07h1.27v9H96.09Z"/><path class="cls-2" d="M99.13,16.8c0-2.08,1.16-3.34,3-3.34s3,1.27,3,3.34-1.15,3.35-3,3.35S99.13,18.89,99.13,16.8Zm4.77,0c0-1.4-.63-2.21-1.73-2.21s-1.73.82-1.73,2.21.62,2.22,1.73,2.22S103.9,18.2,103.9,16.8Z"/><path class="cls-2" d="M106.54,18.2c0-1.16.86-1.83,2.4-1.92l1.74-.1v-.56c0-.68-.45-1.06-1.32-1.06-.71,0-1.2.26-1.34.72h-1.23c.13-1.11,1.17-1.82,2.63-1.82,1.61,0,2.53.8,2.53,2.16V20h-1.22v-.91h-.1a2.17,2.17,0,0,1-1.93,1A2,2,0,0,1,106.54,18.2Zm4.14-.55v-.54l-1.57.1c-.89.06-1.29.36-1.29.93s.5.92,1.19.92A1.52,1.52,0,0,0,110.68,17.65Z"/><path class="cls-2" d="M113.62,16.8c0-2,1-3.32,2.67-3.32a2.12,2.12,0,0,1,2,1.13h.09V11.07h1.27v9h-1.22V19h-.1a2.24,2.24,0,0,1-2,1.12C114.65,20.13,113.62,18.84,113.62,16.8Zm1.31,0c0,1.37.64,2.19,1.72,2.19s1.73-.83,1.73-2.18-.67-2.19-1.73-2.19S114.93,15.45,114.93,16.8Z"/><path class="cls-2" d="M124.89,16.8c0-2.08,1.16-3.34,3-3.34s3,1.27,3,3.34-1.15,3.35-3,3.35S124.89,18.89,124.89,16.8Zm4.77,0c0-1.4-.63-2.21-1.73-2.21s-1.73.82-1.73,2.21.62,2.22,1.73,2.22S129.66,18.2,129.66,16.8Z"/><path class="cls-2" d="M132.68,13.58h1.22v1H134a1.93,1.93,0,0,1,1.92-1.15,2.1,2.1,0,0,1,2.23,2.4V20h-1.27V16.17c0-1-.45-1.55-1.39-1.55a1.48,1.48,0,0,0-1.54,1.63V20h-1.27Z"/><path class="cls-2" d="M145.33,12v1.63h1.4v1.07h-1.4V18c0,.67.28,1,.91,1a4.24,4.24,0,0,0,.48,0V20a4.17,4.17,0,0,1-.69.06c-1.41,0-2-.5-2-1.74V14.68h-1V13.61h1V12Z"/><path class="cls-2" d="M148.46,11.07h1.26v3.55h.1a2,2,0,0,1,2-1.15,2.12,2.12,0,0,1,2.22,2.4V20h-1.27V16.18c0-1-.48-1.55-1.38-1.55a1.5,1.5,0,0,0-1.62,1.63V20h-1.27Z"/><path class="cls-2" d="M161.42,18.29a2.61,2.61,0,0,1-2.79,1.86c-1.85,0-3-1.27-3-3.32s1.15-3.37,3-3.37,2.87,1.22,2.87,3.25v.44h-4.55v.07a1.7,1.7,0,0,0,1.72,1.85,1.54,1.54,0,0,0,1.53-.78Zm-4.47-2.08h3.25a1.55,1.55,0,0,0-1.59-1.67A1.65,1.65,0,0,0,156.94,16.21Z"/></g></g></g></svg>