<svg xmlns="http://www.w3.org/2000/svg" viewBox="0 0 422.01 121.88"><defs><style>.cls-1{font-size:93px;fill:#fff;font-family:NexaHeavy, Nexa Heavy;letter-spacing:-0.04em;}.cls-2{letter-spacing:-0.06em;}.cls-3{letter-spacing:-0.04em;}.cls-4{fill:#007f78;}.cls-5{opacity:0.06;}.cls-6{fill:#0aa;}</style></defs><title>Asset 22</title><g id="Layer_2" data-name="Layer 2"><g id="Layer_1-2" data-name="Layer 1"><text class="cls-1" transform="translate(101.91 79.05)">pa<tspan class="cls-2" x="111.13" y="0">y</tspan><tspan class="cls-3" x="158.84" y="0">ago</tspan></text><path class="cls-4" d="M5.8,99.32h6.5L.17,94.9A5.8,5.8,0,0,0,5.8,99.32Z"/><path class="cls-4" d="M94.19,32.22H5.8a5.78,5.78,0,0,0-2,.35L61.74,53.7a5.83,5.83,0,0,1,4,5.39V99.32H94.19a5.8,5.8,0,0,0,5.8-5.8V38A5.8,5.8,0,0,0,94.19,32.22Z"/><path class="cls-5" d="M0,94.84l.17.06A5.79,5.79,0,0,1,0,93.52Z"/><path class="cls-4" d="M61.74,53.7,3.83,32.57A5.8,5.8,0,0,0,0,38V93.52A5.79,5.79,0,0,0,.17,94.9L12.3,99.32h53.4V59.09A5.83,5.83,0,0,0,61.74,53.7Z"/><path class="cls-5" d="M61.74,53.7,3.83,32.57A5.8,5.8,0,0,0,0,38V93.52A5.79,5.79,0,0,0,.17,94.9L12.3,99.32h53.4V59.09A5.83,5.83,0,0,0,61.74,53.7Z"/><path class="cls-6" d="M52.8,121.47,0,100.62V37L57.06,59.49a5.8,5.8,0,0,1,3.67,5.39v51.19A5.8,5.8,0,0,1,52.8,121.47Z"/></g></g></svg>