<svg xmlns="http://www.w3.org/2000/svg" viewBox="0 0 572.96 448.2"><defs><style>.cls-1{isolation:isolate;}.cls-2{fill:#042438;}.cls-3{fill:#011b32;}.cls-4{fill:#021f35;}.cls-5{fill:#e6e6e6;}.cls-6{fill:#3c155e;}.cls-7{fill:#662d91;mix-blend-mode:multiply;}.cls-11,.cls-7{opacity:0.5;}.cls-8{fill:#f2f2f2;}.cls-9{fill:#052c3f;}.cls-10{fill:#96520f;}.cls-11{fill:#ce6f11;}.cls-12{fill:#fff;}.cls-13{fill:#198953;}</style></defs><title>belanjaan</title><g class="cls-1"><g id="Layer_2" data-name="Layer 2"><g id="Layer_1-2" data-name="Layer 1"><polygon class="cls-2" points="363.37 404.31 464.39 354.24 455.79 312.77 433.74 11.03 398.89 8.82 369.99 0 363.37 404.31"/><polygon class="cls-2" points="369.99 0 371.31 340.12 363.37 404.31 119.2 347.4 129.79 301.08 142.36 18.53 369.99 0"/><polygon class="cls-3" points="363.37 404.31 410.79 342.33 401.09 8.6 369.99 0 371.31 340.12 363.37 404.31"/><path class="cls-4" d="M371.31,340.12s-15.66-203.81-229-321.59L370,0Z"/><ellipse class="cls-5" cx="173.1" cy="43.02" rx="7.02" ry="10.23" transform="matrix(1, -0.02, 0.02, 1, -0.81, 3.38)"/><ellipse class="cls-6" cx="173.09" cy="43.02" rx="3.6" ry="5.25" transform="translate(-0.81 3.41) rotate(-1.13)"/><ellipse class="cls-5" cx="317.43" cy="32.17" rx="10.15" ry="14.79" transform="translate(-0.57 6.2) rotate(-1.12)"/><ellipse class="cls-6" cx="317.43" cy="32.17" rx="5.21" ry="7.58" transform="translate(-0.57 6.21) rotate(-1.12)"/><path class="cls-7" d="M240.73,270.09a25.79,25.79,0,0,1-10.62-2.39c-58.47-26.22-59-210.24-59-218.07a3.32,3.32,0,0,1,3.31-3.31h0a3.31,3.31,0,0,1,3.31,3.32c0,1.87.51,187.54,55.09,212,6.84,3.07,13.43,2.2,20.12-2.66C294,229.13,318.58,68,315.46,39.14a3.31,3.31,0,0,1,6.58-.71c1.6,14.8-4.1,64.16-14.83,111.34-9.69,42.61-26.3,97.08-50.38,114.58C251.57,268.17,246.18,270.09,240.73,270.09Z"/><path class="cls-8" d="M239.41,263.47a25.76,25.76,0,0,1-10.62-2.39c-58.47-26.22-59-210.25-59-218.07a3.31,3.31,0,0,1,3.31-3.31h0A3.31,3.31,0,0,1,176.4,43c0,1.87.51,187.54,55.09,212,6.84,3.07,13.43,2.2,20.12-2.66,41.09-29.87,65.65-191,62.53-219.85a3.31,3.31,0,0,1,6.58-.71c1.6,14.79-4.09,64.16-14.83,111.34-9.69,42.61-26.3,97.08-50.38,114.58C250.24,261.56,244.86,263.47,239.41,263.47Z"/><polygon class="cls-9" points="190.77 421.6 269.7 382.48 262.98 350.08 245.75 114.33 218.52 112.61 195.94 105.71 190.77 421.6"/><polygon class="cls-2" points="195.94 105.71 196.98 371.45 190.77 421.6 0 377.14 8.27 340.95 18.09 120.19 195.94 105.71"/><polygon class="cls-4" points="190.77 421.6 227.82 373.18 220.24 112.43 195.94 105.71 196.98 371.45 190.77 421.6"/><path class="cls-9" d="M197,371.45S184.74,212.22,18.09,120.19l177.85-14.48Z"/><ellipse class="cls-5" cx="42.11" cy="139.32" rx="5.49" ry="8" transform="translate(-2.73 0.85) rotate(-1.13)"/><ellipse class="cls-10" cx="42.11" cy="139.32" rx="2.81" ry="4.1" transform="translate(-2.75 0.86) rotate(-1.13)"/><ellipse class="cls-5" cx="154.88" cy="130.85" rx="7.93" ry="11.56" transform="translate(-2.52 3.05) rotate(-1.12)"/><ellipse class="cls-10" cx="154.87" cy="130.85" rx="4.07" ry="5.93" transform="translate(-2.51 3.04) rotate(-1.11)"/><path class="cls-11" d="M95,316.73a20.15,20.15,0,0,1-8.3-1.87C41,294.38,40.55,150.6,40.56,144.49a2.59,2.59,0,0,1,2.59-2.59h0a2.59,2.59,0,0,1,2.58,2.59c0,1.46.4,146.53,43,165.65,5.35,2.4,10.49,1.72,15.72-2.08,32.11-23.33,51.29-149.19,48.85-171.77a2.59,2.59,0,0,1,5.14-.56c1.25,11.56-3.2,50.13-11.59,87-7.57,33.29-20.55,75.84-39.36,89.52A21.24,21.24,0,0,1,95,316.73Z"/><path class="cls-8" d="M93.92,311.56a20.13,20.13,0,0,1-8.29-1.87c-45.68-20.49-46.1-164.27-46.1-170.38a2.59,2.59,0,0,1,2.59-2.59h0a2.59,2.59,0,0,1,2.58,2.59c0,1.46.4,146.53,43,165.65,5.35,2.4,10.49,1.72,15.72-2.08,32.11-23.33,51.29-149.19,48.85-171.77a2.59,2.59,0,0,1,5.14-.56c1.25,11.56-3.2,50.13-11.59,87-7.57,33.29-20.55,75.84-39.36,89.52A21.23,21.23,0,0,1,93.92,311.56Z"/><path class="cls-12" d="M475.85,173.16a2,2,0,0,1-2-1.92c-1.09-57-15-99.1-37.08-112.68-9.87-6.06-21-6.14-33.12-.27C370.3,74.43,365.12,162,365.08,162.87a2,2,0,1,1-4-.21c.2-3.7,5.38-90.8,40.82-108,13.42-6.5,25.85-6.34,37,.48,23.3,14.3,37.88,57.63,39,116a2,2,0,0,1-2,2Z"/><polygon class="cls-9" points="394.15 448.2 303.25 414.4 309.97 382 327.21 146.25 354.44 144.53 377.01 137.63 394.15 448.2"/><polygon class="cls-2" points="377.01 137.63 375.98 403.37 394.15 448.2 572.96 409.06 564.68 372.87 554.86 152.11 377.01 137.63"/><polygon class="cls-4" points="394.15 448.2 345.13 405.1 352.71 144.35 377.01 137.63 375.98 403.37 394.15 448.2"/><path class="cls-9" d="M376,403.37s12.24-159.24,178.88-251.26L377,137.63Z"/><ellipse class="cls-5" cx="530.85" cy="171.24" rx="8" ry="5.49" transform="translate(349.2 698.62) rotate(-88.87)"/><ellipse class="cls-13" cx="530.85" cy="171.24" rx="4.1" ry="2.81" transform="matrix(0.02, -1, 1, 0.02, 349.14, 698.6)"/><ellipse class="cls-5" cx="418.08" cy="162.77" rx="11.56" ry="7.93" transform="translate(247.18 577.59) rotate(-88.88)"/><ellipse class="cls-13" cx="418.08" cy="162.77" rx="5.93" ry="4.07" transform="translate(247.16 577.58) rotate(-88.88)"/><path class="cls-12" d="M530.85,173.16a2,2,0,0,1-2-1.92c-1.09-57-15-99.1-37.08-112.68-9.87-6.06-21-6.14-33.12-.27C425.3,74.43,420.12,162,420.08,162.87a2,2,0,1,1-4-.21c.2-3.7,5.38-90.8,40.82-108,13.42-6.5,25.85-6.34,37,.48,23.3,14.3,37.88,57.63,39,116a2,2,0,0,1-2,2Z"/></g></g></g></svg>