<svg xmlns="http://www.w3.org/2000/svg" viewBox="0 0 820.42 439.34"><defs><style>.cls-1{fill:#96000b;}.cls-2{fill:#c02;}.cls-3{fill:#011b32;}.cls-4{font-size:135.26px;}.cls-12,.cls-4,.cls-7{fill:#f4f4f4;font-family:Rubik-Black, Rubik;}.cls-5{letter-spacing:-0.01em;}.cls-6{letter-spacing:0em;}.cls-7{font-size:101.47px;}.cls-8{letter-spacing:-0.01em;}.cls-9{letter-spacing:-0.02em;}.cls-10{letter-spacing:-0.09em;}.cls-11{letter-spacing:-0.03em;}.cls-12{font-size:39.45px;}.cls-13{letter-spacing:-0.1em;}.cls-14{letter-spacing:-0.03em;}.cls-15{letter-spacing:-0.02em;}.cls-16{letter-spacing:-0.01em;}.cls-17{letter-spacing:-0.02em;}.cls-18{letter-spacing:-0.09em;}.cls-19{letter-spacing:-0.03em;}</style></defs><title>bigsale</title><g id="Layer_2" data-name="Layer 2"><g id="Layer_1-2" data-name="Layer 1"><polygon class="cls-1" points="487.27 119.9 454.04 0 29.24 165.27 331.17 219.8 487.27 119.9"/><polyline class="cls-2" points="730.29 436.01 403.19 439.34 379.51 285.59 747.32 274.07"/><polyline class="cls-1" points="735.72 384.4 394.61 383.63 379.51 285.59 747.32 274.07"/><polyline class="cls-3" points="772.39 377.06 125.39 368.4 64.6 50.43 820.42 69.76"/><polygon class="cls-1" points="210.66 279.48 230.26 370.25 263.25 370.69 323.75 315.84 210.66 279.48"/><polygon class="cls-1" points="107.74 276.02 118.47 332.15 177.35 318.97 115.37 251.61 107.74 276.02"/><polygon class="cls-1" points="175.62 209.59 174.62 272.68 229.77 242.01 175.62 209.59"/><polygon class="cls-1" points="64.6 50.43 462.73 60.61 447.21 180.14 89.96 183.08 64.6 50.43"/><text class="cls-4" transform="translate(491.1 212.76)">BIG<tspan class="cls-5"><tspan x="-163.39" y="117.67">S</tspan><tspan class="cls-6" x="-70.74" y="117.67">ALE!</tspan></tspan></text><polygon class="cls-2" points="0 11.53 454.04 0 433.02 161.94 29.24 165.27 0 11.53"/><text class="cls-7" transform="translate(48.33 119.9)"><tspan class="cls-8">T</tspan><tspan x="67.68" y="0">O</tspan><tspan class="cls-9" x="142.97" y="0">D</tspan><tspan class="cls-10" x="216.23" y="0">A</tspan><tspan class="cls-11" x="283.91" y="0">Y</tspan></text><polygon class="cls-2" points="297.59 310.51 184.49 274.18 209.57 390.29 297.59 310.51"/><polygon class="cls-2" points="151.2 313.65 89.21 246.29 61.87 333.65 151.2 313.65"/><polygon class="cls-2" points="203.59 236.67 149.45 204.25 148.44 267.35 203.59 236.67"/><polygon class="cls-2" points="501.51 17.84 507.64 42.27 483.42 35.36 501.51 17.84"/><text class="cls-12" transform="translate(439.01 423.15)">ON<tspan class="cls-13" x="58.47" y="0">L</tspan><tspan class="cls-14" x="79.42" y="0">Y</tspan><tspan class="cls-15" x="106.36" y="0"> </tspan><tspan class="cls-16" x="112.87" y="0">T</tspan><tspan x="139.19" y="0">O</tspan><tspan class="cls-17" x="168.46" y="0">D</tspan><tspan class="cls-18" x="196.95" y="0">A</tspan><tspan class="cls-19" x="223.26" y="0">Y</tspan></text></g></g></svg>