<svg xmlns="http://www.w3.org/2000/svg" viewBox="0 0 274.56 276.99"><defs><style>.cls-1{fill:#fff;stroke:#011b32;stroke-miterlimit:10;stroke-width:3px;}.cls-2{fill:#011b32;}</style></defs><title>jempol</title><g id="Layer_2" data-name="Layer 2"><g id="Layer_1-2" data-name="Layer 1"><path class="cls-1" d="M248.35,198.71h2.83a21.88,21.88,0,1,0,0-43.76h-5.33a21.88,21.88,0,0,0,21.88-21.88c0-12.08-10.61-21.88-22.7-21.88H202c-13-5.87-17.27-16.19-17.76-27.5-.38-8.68,1.44-17.94,3.14-26.22,2.22-10.8,3.38-22.1-.1-32.64S174.89,4.61,162.8,2.05c-3.79-.8-7.92-.85-11.42.66-5.65,2.44-8.32,8.41-8.46,14s1.71,11,2.71,16.45a42.23,42.23,0,0,1-2,23.51C137.78,71.13,122.92,81,109.14,90.45a212.47,212.47,0,0,0-22.07,17.38c-2.82,2.53-3.73,4.54-5.14,8.17-.44,1.14-1.82,6.66-3.52,6.66H17V258.23H46.39c11.92,0,28.41-3.52,37.25,6.06,2,2.17,3.65,4.72,6.06,6.42,7.68,5.44,22.18,2.74,31,2.73q54-.11,108-.08h12.67a15.44,15.44,0,1,0,0-30.89h7a21.88,21.88,0,0,0,0-43.76Z"/><rect class="cls-2" y="106.69" width="56.84" height="170.3" rx="4.47" ry="4.47"/></g></g></svg>