<svg xmlns="http://www.w3.org/2000/svg" viewBox="0 0 360.5 483.27"><defs><style>.cls-1{fill:#011b32;}.cls-2{fill:#0aa;}.cls-3{fill:#fff;}.cls-4{fill:#f1f2f2;}.cls-5{fill:#e6e7e8;}</style></defs><title>kunci</title><g id="Layer_2" data-name="Layer 2"><g id="Layer_1-2" data-name="Layer 1"><g id="lock"><path class="cls-1" d="M197.11,310c0-59.5-41.36-107.73-92.38-107.73S12.34,250.49,12.34,310c0,.71,0,1.42.06,2.12h-.06v32.78H42.76V312.3h0c0-.77,0-1.53,0-2.31,0-39.93,27.76-72.29,62-72.29s62,32.36,62,72.29c0,.78,0,1.54-.05,2.31h0v32.59h30.41V312.11h0C197.08,311.41,197.11,310.7,197.11,310Z"/><path class="cls-1" d="M0,327.67v50.86H0a104.72,104.72,0,1,0,209.45,0h0V327.67Z"/><path class="cls-2" d="M104.72,475A96.53,96.53,0,0,1,8.3,378.54V336H201.14v42.56A96.53,96.53,0,0,1,104.72,475Z"/><path class="cls-3" d="M91.68,447V429.5a21.1,21.1,0,1,1,26.1,0V447Z"/><path class="cls-1" d="M122.5,413A17.77,17.77,0,1,0,95,427.8v15.92h19.44V427.8A17.71,17.71,0,0,0,122.5,413Z"/></g><g id="key"><polygon class="cls-4" points="285.69 120.92 273.56 117.71 226.5 295.62 240.78 290.71 251.31 284.82 246.49 269.13 257.82 260.23 259.41 254.23 253.59 242.29 254.99 237 268.21 220.94 270.55 212.09 266.23 194.52 279.08 179.82 280.14 175.82 284.34 175.13 286.02 168.78 297.83 124.13 285.69 120.92"/><polygon class="cls-5" points="249.28 111.29 206.52 272.98 226.5 295.62 273.56 117.71 249.28 111.29"/><polygon class="cls-4" points="258.32 113.68 213.96 281.41 219.34 287.5 264.85 115.41 258.32 113.68"/><path class="cls-1" d="M336.42,19.31,267.56,1.09a32.25,32.25,0,0,0-39.71,23.77l-16.5,69.34a34.26,34.26,0,0,0,24.37,40.72l62.22,16.46A34.26,34.26,0,0,0,339.25,128L359.19,59.6A32.25,32.25,0,0,0,336.42,19.31ZM288.94,59.55a15.34,15.34,0,1,1,18.75-10.91A15.34,15.34,0,0,1,288.94,59.55Z"/><path class="cls-4" d="M351.11,37.59A26.15,26.15,0,0,0,334.89,25.1L266,6.89a26.26,26.26,0,0,0-32.35,19.36l-16.5,69.34a28.17,28.17,0,0,0,20.07,33.54l62.22,16.46a28.16,28.16,0,0,0,34-19.22l19.94-68.43A26.14,26.14,0,0,0,351.11,37.59Zm-62.18,22a15.34,15.34,0,1,1,18.75-10.91A15.34,15.34,0,0,1,288.94,59.55Z"/><path class="cls-1" d="M297.55,27a18.34,18.34,0,1,0,13,22.42A18.36,18.36,0,0,0,297.55,27Zm-8.61,32.56a15.34,15.34,0,1,1,18.75-10.91A15.34,15.34,0,0,1,288.94,59.55Z"/></g></g></g></svg>