<svg xmlns="http://www.w3.org/2000/svg" viewBox="0 0 519.56 351.93"><defs><style>.cls-1{fill:#011b32;}.cls-2{fill:#fff2de;}.cls-3{fill:#0aa;}.cls-4{fill:#2e384c;}.cls-5{fill:#ebebed;}.cls-6{fill:#fff;}.cls-7{fill:#0c141e;}.cls-8{fill:#223b60;}.cls-9{fill:#fcca9b;}.cls-10{fill:#fdddba;}.cls-11{fill:#021f35;}.cls-12{fill:#182933;}.cls-13{fill:#ffce80;}.cls-14{fill:#042438;}.cls-15{fill:#eaa563;}.cls-16{fill:#01192b;}</style></defs><title>kurir</title><g id="Layer_2" data-name="Layer 2"><g id="Layer_1-2" data-name="Layer 1"><path class="cls-1" d="M205.89,178.77l5.8-27.26a36.32,36.32,0,0,1,35.52-28.75H483.25a36.31,36.31,0,0,1,36.31,36.31V324.64H134.14V267.07a51.9,51.9,0,0,1,36.12-49.44l.65-.21A51.91,51.91,0,0,0,205.89,178.77Z"/><rect class="cls-1" x="254.18" y="137.31" width="23.95" height="176.42"/><rect class="cls-1" x="278.13" y="137.31" width="23.95" height="176.42"/><path class="cls-2" d="M208.38,220.37h32.77a2.12,2.12,0,0,0,2.12-2.12V147a2.12,2.12,0,0,0-4-.89l-32.76,71.24A2.12,2.12,0,0,0,208.38,220.37Z"/><path class="cls-3" d="M205.07,220.37a3.93,3.93,0,0,1-.26-3.77l32.76-71.24a3.94,3.94,0,0,1,7.52,1.65v71.24a3.94,3.94,0,0,1-3.94,3.94H208.38A3.92,3.92,0,0,1,205.07,220.37Zm3.06-2a.29.29,0,0,0,.25.14l33.07-.31V147l-.58-.13Z"/><path class="cls-2" d="M290.94,225.52h.12a5.57,5.57,0,0,0,5.56-5.57v-69.5a5.57,5.57,0,0,0-5.56-5.57h-.12a5.57,5.57,0,0,0-5.57,5.57V220A5.57,5.57,0,0,0,290.94,225.52Z"/><path class="cls-3" d="M283.55,220v-69.5a7.44,7.44,0,0,1,14.89,0V220a7.39,7.39,0,0,1-7.38,7.39h-.12A7.4,7.4,0,0,1,283.55,220Zm3.64-69.5V220a3.76,3.76,0,0,0,3.75,3.75h.12A3.75,3.75,0,0,0,294.8,220v-69.5a3.81,3.81,0,0,0-7.62,0Z"/><rect class="cls-2" x="260.53" y="144.88" width="11.25" height="80.65" rx="5.57" ry="5.57"/><path class="cls-3" d="M258.71,220v-69.5a7.44,7.44,0,0,1,14.89,0V220a7.39,7.39,0,0,1-7.38,7.39h-.11A7.4,7.4,0,0,1,258.71,220Zm3.64-69.5V220a3.76,3.76,0,0,0,3.76,3.75h.11A3.75,3.75,0,0,0,270,220v-69.5a3.81,3.81,0,0,0-7.62,0Z"/><circle class="cls-4" cx="184.16" cy="313.73" r="38.19"/><circle class="cls-5" cx="184.15" cy="313.73" r="15.46"/><circle class="cls-4" cx="435.33" cy="313.73" r="38.2"/><circle class="cls-5" cx="435.33" cy="313.73" r="15.46"/><path class="cls-6" d="M394.28,331.25h-.18a8.39,8.39,0,0,1-7.59-10.32l2.26-9.84a47,47,0,0,1,45.76-36.44h8a42.52,42.52,0,0,1,41.37,32.66l3.24,13.61a8.4,8.4,0,0,1-7.59,10.33l-.74,0a8.37,8.37,0,0,1-8.77-6.6l-1.49-6.94a30.39,30.39,0,0,0-29.72-24h-5A30.4,30.4,0,0,0,403.72,320l-.55,4A8.49,8.49,0,0,1,394.28,331.25Z"/><path class="cls-6" d="M141.63,331.25h-.18a8.4,8.4,0,0,1-7.6-10.32l2.26-9.85a47,47,0,0,1,45.76-36.43h8a42.52,42.52,0,0,1,41.37,32.66l3.24,13.61a8.4,8.4,0,0,1-7.59,10.33l-.74,0a8.37,8.37,0,0,1-8.77-6.6l-1.48-6.94a30.4,30.4,0,0,0-29.73-24h-5A30.4,30.4,0,0,0,151.07,320l-.55,4A8.49,8.49,0,0,1,141.63,331.25Z"/><path class="cls-3" d="M435.28,211a32.61,32.61,0,0,1-1.51,4.74,39.19,39.19,0,0,1-2.93,6,37.57,37.57,0,0,1-6.71,8.62l.36.39c.39.42,4.33,4.71,4.37,4.66a50.57,50.57,0,0,0,8.88-11.91,40.64,40.64,0,0,0,3.11-7.35,31.24,31.24,0,0,0,1-3.12c.07-.31-.08-.25-.36-.33Z"/><path class="cls-3" d="M436.54,197.39l6.82-.49a49.91,49.91,0,0,0-4.76-18.06l-6.13,3.1A42.32,42.32,0,0,1,436.54,197.39Z"/><path class="cls-3" d="M426.54,163l-4.39,5.37c1.58,1.45,3.06,2.93,4.5,4.54a25.43,25.43,0,0,1,1.81,2.32s.46-.32.52-.36l5-3.83A56.09,56.09,0,0,0,426.54,163Z"/><path class="cls-3" d="M393.74,166.37l17.53-11.08-17.53-10.73v7.21a42.21,42.21,0,0,0-12.55,2.4,48.57,48.57,0,0,0-24.81,19.7,47.09,47.09,0,0,0-7,18.26,53,53,0,0,0-.63,10.13,69.69,69.69,0,0,0,.91,7.77L356,208.7c.32-.07.44,0,.38-.33-.18-1.13-.39-2.25-.54-3.38-.12-2.56-.23-5.05-.15-7.62a41.23,41.23,0,0,1,1.28-7.7,33.69,33.69,0,0,1,2.67-7.4,41.07,41.07,0,0,1,9-12.52,40.46,40.46,0,0,1,25.11-10.95Z"/><path class="cls-3" d="M372.38,233.54a39.67,39.67,0,0,0,13.67,6.75,31.51,31.51,0,0,0,7.58,1.3,37.58,37.58,0,0,0,7.61-.15c.66-.11,1.3-.25,1.94-.38a39.28,39.28,0,0,1-7.22.57,40.47,40.47,0,0,1-33.15-18.52l-1.19-1.87a.22.22,0,0,0-.06-.06A41.22,41.22,0,0,0,372.38,233.54Z"/><path class="cls-3" d="M363.38,234.76l.34.32-.59-.59Z"/><path class="cls-3" d="M367.23,238.23c-.47-.39-.94-.78-1.4-1.19C366.28,237.46,366.76,237.84,367.23,238.23Z"/><path class="cls-3" d="M358.27,228.73c.39.54.79,1.08,1.2,1.6-.54-.69-1-1.41-1.54-2.12C358,228.38,358.15,228.56,358.27,228.73Z"/><path class="cls-3" d="M361.26,232.46c-.35-.41-.71-.81-1-1.22C360.56,231.65,360.91,232.06,361.26,232.46Z"/><path class="cls-3" d="M410.41,246.51c-.39.13-.8.23-1.19.35Z"/><path class="cls-3" d="M370.45,240.63c-.54-.37-1.08-.74-1.61-1.13C369.37,239.89,369.9,240.26,370.45,240.63Z"/><path class="cls-3" d="M373.47,242.52c-.38-.22-.77-.43-1.14-.66C372.7,242.08,373.08,242.3,373.47,242.52Z"/><path class="cls-3" d="M414,245.25c-.91.35-1.82.68-2.74,1C412.17,245.93,413.09,245.61,414,245.25Z"/><path class="cls-3" d="M372.33,241.86c-.64-.39-1.26-.8-1.88-1.23C371.06,241.05,371.69,241.46,372.33,241.86Z"/><path class="cls-3" d="M411.26,246.23l-.85.28Z"/><path class="cls-3" d="M360.23,231.24c-.26-.3-.51-.6-.76-.91C359.71,230.64,360,230.94,360.23,231.24Z"/><path class="cls-3" d="M414.47,245.08h0l-.47.18Z"/><path class="cls-3" d="M403.19,241.06l1.07-.21Z"/><path class="cls-3" d="M363.13,234.49q-1-1-1.87-2C361.87,233.15,362.49,233.83,363.13,234.49Z"/><path class="cls-3" d="M368.84,239.5c-.55-.41-1.08-.83-1.61-1.26C367.76,238.66,368.29,239.09,368.84,239.5Z"/><path class="cls-3" d="M376.4,244.06c-1-.46-2-1-2.93-1.54a46.09,46.09,0,0,0,5.13,2.59,44.32,44.32,0,0,0,18.79,3.61,49.54,49.54,0,0,0,9.81-1.27c.69-.17,1.34-.39,2-.59-.54.15-1.08.31-1.61.44A47.27,47.27,0,0,1,376.4,244.06Z"/><path class="cls-3" d="M365.83,237c-.72-.64-1.43-1.29-2.1-2C364.41,235.75,365.1,236.42,365.83,237Z"/><path class="cls-3" d="M411.65,238.68c-1,.4-2.08.82-3.14,1.18-1.42.36-2.83.69-4.25,1l-1.07.21c-.65.12-1.28.27-1.94.38a37.58,37.58,0,0,1-7.61.15,31.51,31.51,0,0,1-7.58-1.3,39.67,39.67,0,0,1-13.67-6.75,41.22,41.22,0,0,1-10.81-12.36c-.11-.09-.22,0-.39.15l-5.53,3.33c.76,1.18,1.49,2.4,2.28,3.56.5.71,1,1.43,1.54,2.12.25.31.5.6.76.91s.69.82,1,1.22q.92,1,1.87,2l.59.59c.67.68,1.38,1.33,2.1,2,.46.41.93.8,1.4,1.19s1.06.85,1.61,1.26,1.07.76,1.61,1.13,1.24.84,1.88,1.23c.37.23.76.44,1.14.66,1,.55,1.93,1.08,2.93,1.54a47.27,47.27,0,0,0,31.21,3.24c.53-.13,1.07-.29,1.61-.44s.8-.23,1.19-.35l.85-.28c.91-.31,1.83-.64,2.74-1l.47-.18q-1.22-3-2.43-6.07C411.91,238.69,412,238.56,411.65,238.68Z"/><path class="cls-3" d="M391.95,224.43H370.22a3.67,3.67,0,0,1-2.83-1.34,3.89,3.89,0,0,1-.83-3.07c0-.2.81-5,1.45-7.72.54-2.28,2.37-5.32,12-12.07,6.46-4.54,7.81-6.22,8.4-8.27a8.59,8.59,0,0,0-1.1-6.74c-1.31-1.81-3.62-2.72-6.86-2.72a5.55,5.55,0,0,0-4.31,1.53c-1.56,1.67-1.77,4.58-1.75,5.27a3.73,3.73,0,0,1-3.51,4,3.69,3.69,0,0,1-3.86-3.61c0-.67-.17-6.62,3.78-10.85a12.69,12.69,0,0,1,9.66-3.88c7.1,0,10.88,3.14,12.78,5.77a16.29,16.29,0,0,1,2.26,13.43c-1.37,4.75-4.6,7.66-11.31,12.38-7.89,5.54-8.93,7.54-9,7.75-.17.71-.35,1.64-.53,2.61h17.32a3.79,3.79,0,0,1,0,7.59Z"/><path class="cls-3" d="M417.37,224.43a3.75,3.75,0,0,1-3.7-3.79V211H400.16a3.69,3.69,0,0,1-3.23-1.95,3.89,3.89,0,0,1,.08-3.84l17.22-28.54a3.67,3.67,0,0,1,4.16-1.65,3.78,3.78,0,0,1,2.68,3.65v24.75h.83a3.79,3.79,0,0,1,0,7.59h-.83v9.6A3.74,3.74,0,0,1,417.37,224.43Zm-10.58-21h6.88V192Z"/><path class="cls-7" d="M51.92,342.81h-11a5.72,5.72,0,0,1-5.19-3.32l-1.29,5A5.72,5.72,0,0,0,40,351.64H51a5.72,5.72,0,0,0,5.71-5.72v-5.87A5.62,5.62,0,0,1,51.92,342.81Z"/><path class="cls-7" d="M37.53,332.48l-1.81,7a5.72,5.72,0,0,0,5.19,3.32h11a5.62,5.62,0,0,0,4.77-2.76v-7.58Z"/><path class="cls-7" d="M79.38,342.81h11a5.7,5.7,0,0,0,5.18-3.32l1.29,5a5.72,5.72,0,0,1-5.54,7.14h-11a5.72,5.72,0,0,1-5.71-5.72v-5.87A5.62,5.62,0,0,0,79.38,342.81Z"/><path class="cls-7" d="M93.77,332.48l1.81,7a5.7,5.7,0,0,1-5.18,3.32h-11a5.62,5.62,0,0,1-4.77-2.76v-7.58Z"/><path class="cls-8" d="M57.73,337.65h-22L32.49,194.3C31,175.52,65.25,123.2,65.25,123.2V193Z"/><path class="cls-8" d="M73.57,337.65h22L98,200.8C99.51,182,65.25,123.2,65.25,123.2V193Z"/><polygon class="cls-9" points="50.86 90.75 65.25 97.71 65.25 59.7 55.02 59.7 50.86 90.75"/><polygon class="cls-9" points="79.49 86.84 65.25 97.71 65.25 59.7 76.28 55.4 79.49 86.84"/><path class="cls-10" d="M65.25,70V7.41h3.89c9.53,0,19.71,10,19.71,18.55L85.48,49.41C84.1,59.07,75.65,67.12,65.25,70Z"/><path class="cls-9" d="M83.6,51.87h0a4.44,4.44,0,0,0,4.11-4l1.77-10.92c.24-1.34-1-2.34-2-1.55L84.34,38Z"/><path class="cls-10" d="M65.25,70V7.41h0c-9.52,0-23.56,10-23.56,18.55L45,49.41C46.43,59.07,54.85,67.12,65.25,70Z"/><path class="cls-10" d="M46.93,51.87h0a4.43,4.43,0,0,1-4.11-4L41,36.93c-.25-1.34,1-2.34,2-1.55L46.2,38Z"/><path class="cls-4" d="M48.8,25.51c-1.19,7.07-2,14.62-2,14.62s-4.09-.33-5.41-10.24,3-16.75,5.21-19,8.87-5.19,18.64-5.42S79.81,8.42,85,13.25,89.59,22.73,89,27.4s-4,14.27-4,14.27L83.33,29.43A10.71,10.71,0,0,0,73,20.23S50,18.44,48.8,25.51Z"/><path class="cls-11" d="M95.54,178.8l3.27-58.18c0-9.37,15.87-43.44-6.63-40.67a114.91,114.91,0,0,1-14-4.31c0,7.13-5.79,15.92-12.92,15.92V178.8Z"/><path class="cls-11" d="M65.26,91.53c-7.13,0-12.34-9-12.35-16.12l-13.79,4.5c-22.5-2.77-6.63,31.29-6.63,40.67l3.17,58.18c11.47,0,21.24.62,29.58,0C65.25,178.76,65.26,120.41,65.26,91.53Z"/><polygon class="cls-12" points="98.09 180.62 79.91 180.62 32.45 180.62 32.45 172.28 98.09 172.28 98.09 180.62"/><rect class="cls-13" x="38.75" y="127.18" width="52.52" height="54.5"/><path class="cls-11" d="M61.06,0h4.19V23.53H41.32V19.75A19.75,19.75,0,0,1,61.06,0Z"/><path class="cls-11" d="M69.44,0H65.25V23.53H89.19V19.75A19.75,19.75,0,0,0,69.44,0Z"/><path class="cls-11" d="M60.79,28.76h4.46V23.53H41.32l6.94,7C53.28,36.26,54.8,28.34,60.79,28.76Z"/><path class="cls-14" d="M69.71,28.76H65.25V23.53H89.19l-6.94,7C77.22,36.26,75.7,28.34,69.71,28.76Z"/><path class="cls-15" d="M38.64,159.84s-2.9-.94-3,1.25-.43,3.36-2.86,3.77l-2.42.41a6.28,6.28,0,0,0,2.13,2.21c1.28.68,5.28,1.47,5.71-1.73A50.08,50.08,0,0,0,38.64,159.84Z"/><path class="cls-10" d="M33.39,180.62c0-1.66.46.06.16-1.58s-.22-1.21.69-2.59.14-2-.17-3a3.59,3.59,0,0,1,1.29-3.06c.61-.38,0-1.35,0-2.29,0-.49.63-1.12,1.24-1.62l.45.17v.13h7.82a1.5,1.5,0,0,1,1.5,1.5v0a1.5,1.5,0,0,1-1.5,1.5s-7.79.9-7.58.9h8.78a1.5,1.5,0,0,1,1.5,1.5v0a1.5,1.5,0,0,1-1.5,1.5l-9.66,1.63h8.76a1.5,1.5,0,0,1,1.5,1.5v0a1.5,1.5,0,0,1-1.5,1.5l-9.1,1.41h8.42a1.5,1.5,0,0,1,1.5,1.5v0a1.5,1.5,0,0,1-1.5,1.5H35.69a11.57,11.57,0,0,1-1.2-.23C33.87,181.63,33.34,182.27,33.39,180.62Z"/><path class="cls-9" d="M30.37,164l6.22,2.42c-.61.5-1.23,1.13-1.24,1.62,0,.94.61,1.91,0,2.29a3.59,3.59,0,0,0-1.29,3.06c.31,1,1.08,1.64.17,3s-1,.94-.69,2.59-.11-.08-.16,1.58.48,1,1.09,2a18.18,18.18,0,0,1-6.6-3.31L18.1,165.64Z"/><path class="cls-11" d="M32.24,165l-.1,0A8.75,8.75,0,0,0,27,177.65l.91,1.62S4,158.55,1.26,143.34c-6-33.27,11.17-48.1,17.23-51.26,5.68-3,7.66-10.22,13.91-11.61l.09,0v40.14L19.9,143.34Z"/><path class="cls-15" d="M91.28,159.84s2.91-.94,3,1.25.43,3.36,2.86,3.77l2.42.41a6.28,6.28,0,0,1-2.13,2.21c-1.28.68-5.29,1.47-5.71-1.73A50.09,50.09,0,0,1,91.28,159.84Z"/><path class="cls-10" d="M96.52,180.62c0-1.66-.46.06-.16-1.58s.22-1.21-.69-2.59-.14-2,.17-3a3.58,3.58,0,0,0-1.29-3.06c-.6-.38,0-1.35,0-2.29,0-.49-.62-1.12-1.23-1.62l-.45.17v.13H85.07a1.5,1.5,0,0,0-1.5,1.5v0a1.5,1.5,0,0,0,1.5,1.5s7.8.9,7.58.9H83.86a1.5,1.5,0,0,0-1.5,1.5v0a1.5,1.5,0,0,0,1.5,1.5l9.67,1.63H84.77a1.5,1.5,0,0,0-1.5,1.5v0a1.5,1.5,0,0,0,1.5,1.5l9.1,1.41H85.44a1.5,1.5,0,0,0-1.5,1.5v0a1.5,1.5,0,0,0,1.5,1.5h8.78a11.59,11.59,0,0,0,1.2-.23C96,181.63,96.58,182.27,96.52,180.62Z"/><path class="cls-9" d="M99.54,164l-6.22,2.42c.61.5,1.23,1.13,1.23,1.62,0,.94-.6,1.91,0,2.29a3.58,3.58,0,0,1,1.29,3.06c-.31,1-1.08,1.64-.17,3s1,.94.69,2.59.11-.08.16,1.58-.48,1-1.09,2a18.18,18.18,0,0,0,6.6-3.31l9.79-13.63Z"/><path class="cls-11" d="M97.68,165l.1,0a8.75,8.75,0,0,1,5.16,12.66l-.91,1.62s27-20.48,26.62-35.94c-.77-28.57-14.86-45.54-17.23-51.26A19.67,19.67,0,0,0,97.51,80.46l-.09,0v40.14L110,143.34Z"/><path class="cls-16" d="M65,91.53s-3.13.77-7.67-2.25a22.7,22.7,0,0,1-3.1-2.47,8.83,8.83,0,0,0,1-2.28A3.31,3.31,0,0,1,58,81.91c2.91,1.22-.18,3.94,2.58,6.08C63.72,90.42,65,91.53,65,91.53Z"/><path class="cls-14" d="M58,81.91a3.31,3.31,0,0,0-2.84,2.62,8.83,8.83,0,0,1-1,2.28A19.76,19.76,0,0,1,52,90s-4.31-3-5.38-6,0-8.07,0-8.07,6.3-8.48,7.37-7.41A14.18,14.18,0,0,0,58,81.91Z"/><path class="cls-1" d="M65,91.53s3.13.77,7.67-2.25a22.7,22.7,0,0,0,3.1-2.47,8.65,8.65,0,0,1-1-2.28,3.32,3.32,0,0,0-2.84-2.62c-2.91,1.22.18,3.94-2.58,6.08C66.23,90.42,65,91.53,65,91.53Z"/><path class="cls-14" d="M71.9,81.91a3.32,3.32,0,0,1,2.84,2.62,8.65,8.65,0,0,0,1,2.28A19.42,19.42,0,0,0,78,90s3.24-3.67,5.38-6,.52-7.68,0-8.07c0,0-5.8-9-6.87-7.94C77.56,78,71.9,81.91,71.9,81.91Z"/></g></g></svg>