<svg xmlns="http://www.w3.org/2000/svg" viewBox="0 0 422.01 94.17"><defs><style>.cls-1{fill:#fff;}.cls-2{fill:#007f78;}.cls-3{opacity:0.06;}.cls-4{fill:#0aa;}</style></defs><title>logopayago</title><g id="Layer_2" data-name="Layer 2"><g id="Layer_1-2" data-name="Layer 1"><path class="cls-1" d="M107.58,71.61V5.49h12l.84,5.86c4.28-5.49,9.49-6.7,15.25-6.7,13.49,0,22.69,9.49,22.69,23.81,0,14.88-9.39,23.9-22.88,23.9a18.26,18.26,0,0,1-14.42-6.51V71.61Zm37.29-43.15c0-6.6-4.09-11.81-11.25-11.81-6,0-12.37,3.07-12.37,11.81,0,7.72,6.23,11.81,12.37,11.81C140.5,40.27,144.87,35.34,144.87,28.46Z"/><path class="cls-1" d="M198.72,5.39h12.55V51.34H199.19l-.74-5.77c-3.07,4.84-9.67,6.7-14.14,6.79-13.76.09-23.71-8.84-23.71-24s10.51-24.18,24.09-24c5.77,0,11.16,2.23,13.58,6.32ZM174,28.37c0,7.63,5.39,12.09,12.09,12.09a11.81,11.81,0,0,0,12.18-11.63c0-6.6-4.19-12.65-12.18-12.65C179.38,16.18,174,20.74,174,28.37Z"/><path class="cls-1" d="M265.86,5.39,237.69,72h-14.6l9.49-22L213.32,5.39h15.07l11.44,28.92L251.08,5.39Z"/><path class="cls-1" d="M301.95,5.39H314.5V51.34H302.41l-.74-5.77c-3.07,4.84-9.67,6.7-14.14,6.79-13.76.09-23.72-8.84-23.72-24s10.51-24.18,24.09-24c5.77,0,11.16,2.23,13.58,6.32Zm-24.74,23c0,7.63,5.39,12.09,12.09,12.09a11.81,11.81,0,0,0,12.18-11.63c0-6.6-4.19-12.65-12.18-12.65C282.61,16.18,277.21,20.74,277.21,28.37Z"/><path class="cls-1" d="M332.45,57.66c.46,7.07,5.39,9.3,11.53,9.3,6,0,11.35-2.79,11.35-8.46,0-4.46-2.88-7.91-11.16-7.91-15.07,0-24.83-8.93-24.83-23.16,0-15.62,12-23.44,24.83-23.44,3.26,0,7.81.46,10.79,2.51L360,0l9.67,7.44-5.86,7a19.61,19.61,0,0,1,4.74,13.21c-.19,6.51-3.16,12.65-9.86,16.09,10.23,4.56,10.23,12.09,10.23,14.79,0,13.67-12.28,20.27-24.92,20.27-15.9,0-24.18-7.91-24-21.11Zm-.19-30.23c0,6.6,5.12,11,11.9,11,6,0,11.53-3.63,11.53-11A11.3,11.3,0,0,0,344.17,15.9C337.38,15.9,332.27,20,332.27,27.44Z"/><path class="cls-1" d="M371.7,28.46c0-13.86,9.86-24.09,25.11-24.09S422,14.6,422,28.46s-9.58,23.9-25.2,23.9S371.7,42.32,371.7,28.46Zm36.74,0c0-5.77-3.53-12.09-11.62-12.09s-11.53,6.32-11.53,12.09,3.44,12,11.53,12S408.43,34.5,408.43,28.46Z"/><path class="cls-2" d="M5.8,71.61h6.5L.17,67.19A5.8,5.8,0,0,0,5.8,71.61Z"/><path class="cls-3" d="M0,67.12l.17.06A5.79,5.79,0,0,1,0,65.81Z"/><path class="cls-2" d="M94.19,4.51H5.8A5.82,5.82,0,0,0,0,10.31V65.81a5.79,5.79,0,0,0,.17,1.37L12.3,71.61H94.19a5.8,5.8,0,0,0,5.8-5.8V10.31A5.8,5.8,0,0,0,94.19,4.51Z"/><path class="cls-3" d="M61.74,26,3.83,4.86A5.8,5.8,0,0,0,0,10.31V65.81a5.79,5.79,0,0,0,.17,1.37L12.3,71.61h53.4V31.38A5.83,5.83,0,0,0,61.74,26Z"/><path class="cls-4" d="M52.8,93.75,0,72.91V9.25L57.06,31.77a5.8,5.8,0,0,1,3.67,5.39V88.36A5.8,5.8,0,0,1,52.8,93.75Z"/></g></g></svg>