<svg xmlns="http://www.w3.org/2000/svg" viewBox="0 0 1366 542"><defs><style>.cls-1{fill:#011b32;}.cls-2,.cls-3{fill:#fff;}.cls-2{opacity:0.03;}.cls-4{fill:#0aa;}</style></defs><title>payagobg</title><g id="Layer_2" data-name="Layer 2"><g id="Layer_1-2" data-name="Layer 1"><path class="cls-1" d="M0,0V413L201.83,522.61A106.86,106.86,0,0,0,262,535.15l1104-95.38V0Z"/><polygon class="cls-2" points="397.52 0 715.73 502.43 1366 439.77 1366 0 397.52 0"/><path class="cls-3" d="M0,420.33V542H252.73a113,113,0,0,1-54-13.74Z"/><path class="cls-4" d="M1366,446.25v-13L261.45,528.72a100,100,0,0,1-56.5-11.77L0,405.62v14.71L198.71,528.26a113,113,0,0,0,54,13.74q4.91,0,9.85-.43Z"/></g></g></svg>