<svg xmlns="http://www.w3.org/2000/svg" xmlns:xlink="http://www.w3.org/1999/xlink" viewBox="0 0 594.66 504.61"><defs><style>.cls-1{mask:url(#mask);filter:url(#luminosity-noclip-2);}.cls-18,.cls-2{mix-blend-mode:multiply;}.cls-2{fill:url(#linear-gradient);}.cls-3{isolation:isolate;}.cls-4{fill:#011b32;}.cls-5{fill:#ecdbce;}.cls-6{fill:#f1f2f2;}.cls-7{fill:#131313;}.cls-8{fill:#5a4945;}.cls-9{fill:#4c4c4c;}.cls-10{fill:#ae8c38;}.cls-11{fill:#cacaca;}.cls-12{fill:#976233;}.cls-13{fill:#666;}.cls-14{fill:#7a6356;}.cls-15{fill:#f4e5d3;}.cls-16{fill:#303030;}.cls-17{mask:url(#mask-2);}.cls-18{opacity:0.22;fill:url(#linear-gradient-2);}.cls-19{fill:#ddc68b;}.cls-20{fill:#3f3f3f;}.cls-21{filter:url(#luminosity-noclip);}</style><filter id="luminosity-noclip" x="37.96" y="-9567.39" width="129.9" height="32766" filterUnits="userSpaceOnUse" color-interpolation-filters="sRGB"><feFlood flood-color="#fff" result="bg"/><feBlend in="SourceGraphic" in2="bg"/></filter><mask id="mask" x="37.96" y="-9567.39" width="129.9" height="32766" maskUnits="userSpaceOnUse"><g class="cls-21"/></mask><linearGradient id="linear-gradient" x1="-218.26" y1="551.05" x2="-150.56" y2="551.05" gradientTransform="matrix(1.92, -0.05, 0.03, 1, 441.13, -60.54)" gradientUnits="userSpaceOnUse"><stop offset="0" stop-color="#fff"/><stop offset="1"/></linearGradient><filter id="luminosity-noclip-2" x="37.96" y="495.91" width="129.9" height="8.7" filterUnits="userSpaceOnUse" color-interpolation-filters="sRGB"><feFlood flood-color="#fff" result="bg"/><feBlend in="SourceGraphic" in2="bg"/></filter><mask id="mask-2" x="37.96" y="495.91" width="129.9" height="8.7" maskUnits="userSpaceOnUse"><g class="cls-1"><path id="_Path_" data-name="&lt;Path&gt;" class="cls-2" d="M165.49,500.09c2.51-.87,3.24-1.93,1.09-3.22-1.72-1-6.72-.49-9-.54-10.68-.25-21.38-.44-32.1-.41-21.56.07-43.17.9-64.63,2.48-3.19.23-26.26,1.14-22.48,5.09,1.92,2,11.09.73,14.48.72l22.2-.09,44.41-.18C122.76,503.93,156.24,503.29,165.49,500.09Z"/></g></mask><linearGradient id="linear-gradient-2" x1="-218.26" y1="551.05" x2="-150.56" y2="551.05" gradientTransform="matrix(1.92, -0.05, 0.03, 1, 441.13, -60.54)" gradientUnits="userSpaceOnUse"><stop offset="0"/><stop offset="1"/></linearGradient></defs><title>pelanggan</title><g class="cls-3"><g id="Layer_2" data-name="Layer 2"><g id="Layer_1-2" data-name="Layer 1"><g id="_Group_" data-name="&lt;Group&gt;"><path id="_Path_2" data-name="&lt;Path&gt;" class="cls-4" d="M237.07,383c-1.67-30.45,1.83-61.5,1.53-92.14a61,61,0,0,0-5.2-31.42,4.65,4.65,0,0,0-1.14-1.73c-1.73-1.47-4.69-.69-7,.09-22,7.51-48.06,5.74-68.15-4.86-4,5-5.11,11.12-6.09,17-1.58,9.57-3.32,19.12-3.74,28.74v.05h0c-.09,2.06-.14,4.13-.09,6.2.28,12,3.08,23.79,5.26,35.6a140,140,0,0,1,2.8,23.27c.1,6.39-1,12.23.74,18.48,4.26,15.4,4.27,32.19,6.07,47.92,1.93,16.85,3.83,33.71,5.41,50.59l.19,2c1,.23,16.74,3.22,16.74-.15l3.78-98.29c.53-13.79-.68-60.36,3.55-73.5l5.23.43c9.58,43.35,20.93,119.3,30.51,162.65.84,3.82,1.87,7.94,4.91,10.4s8.73,1.77,9.63-2C239.21,449.26,238.89,416.14,237.07,383Z"/><path id="_Path_3" data-name="&lt;Path&gt;" class="cls-5" d="M208.95,86.56c0-11.21-9.77-20.29-21.82-20.29s-21.82,9.08-21.82,20.29a18.93,18.93,0,0,0,.8,5.39c0,.44,0,.89,0,1.36a57.5,57.5,0,0,0,.91,12.1c1.54,7.76,5.55,15,13.15,19.39a16.89,16.89,0,0,0,8.46,2.57c4.07,0,7.8-2.12,10.63-4.72,9.34-8.58,10.14-21.46,9.48-33.63A19,19,0,0,0,208.95,86.56Z"/><path id="_Path_4" data-name="&lt;Path&gt;" class="cls-6" d="M239.5,277.7q-.11-31.45-.22-62.9c-.06-17.67-4.09-36.41-6.71-53.86-1.44-9.6-3.14-12.94-7.5-21.5-.62-1.22-.73-2-6.49-3.9-1.25-.4-4.23-2.1-5.77-1.84-7.53,1.27-15.2-1.58-22.73-.31-8,1.35-21.34-2.69-27.55,2.76-8.4,7.37-9,24.86-10.31,36.31-1.8,15.44-6.07,31.1-6.83,46.64-.66,13.63-1,27.28-1.27,40.93-.13,7.12-2.73,31.86,3.66,36.62,3.74,2.78,13.74,3.92,24,4.26l1.11,0h.3c4.19.11,8.38.1,12.18,0,5.61-.12,10.35-.39,12.92-.63,12-1.1,23.87-3.54,35.64-6.25,2.09-.48,4.4-1.12,5.54-3C240.32,289.68,239.5,279.32,239.5,277.7Z"/><path id="_Path_5" data-name="&lt;Path&gt;" class="cls-7" d="M174.35,497.86c-1.49,1.25.53,2.24,1.51,2.33a16.32,16.32,0,0,0,5.33-.35,3.25,3.25,0,0,0,1.29-.54,3.63,3.63,0,0,0,.71-.85c.57-.85,1.92-2.2,2.13-3.18a3.7,3.7,0,0,0-.69-2.35c-.81-1.58-2.2-3.2-2.13-5.07-3.83.42-7.5-.9-10.68.13-.27,1.33-1.27,2.43-.8,3.47-.31-.69-9.56,1.64-10.66,1.85a51.32,51.32,0,0,1-5.33.8c-1.4.12-4.07-.52-4.85.87a3.89,3.89,0,0,0-.41,1.64,3.22,3.22,0,0,0,.1,1.28,2.55,2.55,0,0,0,1.59,1.47C159,502.16,166.63,497.75,174.35,497.86Z"/><path id="_Path_6" data-name="&lt;Path&gt;" class="cls-7" d="M238.46,496c1.44,1.34-.51,2.42-1.45,2.52a14.21,14.21,0,0,1-5.16-.36,3,3,0,0,1-1.25-.58,3.86,3.86,0,0,1-.69-.92c-.55-.92-1.87-2.36-2.08-3.43a4.33,4.33,0,0,1,.66-2.54c.78-1.7,2.11-4.77,2-6.8,3.71.44,9.08.45,12.16,1.56-.81,1.57-.58,2.48-1,3.61.29-.75,9.26,1.74,10.32,2a44.89,44.89,0,0,0,5.16.84c1.35.13,3.94-.57,4.7.93a4.59,4.59,0,0,1,.4,1.77,3.87,3.87,0,0,1-.1,1.38,2.6,2.6,0,0,1-1.53,1.59C253.28,500.55,245.93,495.82,238.46,496Z"/><path id="_Path_7" data-name="&lt;Path&gt;" class="cls-8" d="M219.34,73a12.62,12.62,0,0,0-1.76-2.79,18.1,18.1,0,0,0-4.73-9.87,5.19,5.19,0,0,0-4.63-1.49,16.7,16.7,0,0,0-6-1.31,20.67,20.67,0,0,0-6.83-2.77c-12.48-2.49-26.11,2.62-33.22,13.13-1.06-4.43-9.41-5.1-10.11.14s1.09,9.79,6.25,11.92c4.49,1.85,7.39.32,10-2.25.11-.06.22-.09.32-.16,4.41-2.61,9.32-5.69,14.5-7,3.86,1.37,7.6,4.5,10.67,7.38a18.36,18.36,0,0,0,6.08,4A15.34,15.34,0,0,0,201,84a5.64,5.64,0,0,0,5.13,6,12.92,12.92,0,0,0,4-.27c-.09.34-.18.68-.25,1-.35,1.47-.7,6.52-2.32,7.29-3.61,1.72-3.15,7.13,0,9s8.29-.44,7.82-4.49c-.12-1,.77-3,1.1-4,.48-1.41,1.13-2.64,1.53-4.12a22.85,22.85,0,0,0,.87-4.56c0-.62-.34-3.84-.09-4.16a3.58,3.58,0,0,0,.44-3.72c.11-.28.23-.55.32-.84A11.69,11.69,0,0,0,219.34,73Z"/></g><g id="_Group_2" data-name="&lt;Group&gt;"><g id="_Group_3" data-name="&lt;Group&gt;"><path id="_Path_8" data-name="&lt;Path&gt;" class="cls-7" d="M504.31,498.08c-1.41,1.18.51,2.12,1.42,2.2a15.43,15.43,0,0,0,5-.33,3.07,3.07,0,0,0,1.22-.51,3.44,3.44,0,0,0,.67-.81c.54-.8,1.82-2.08,2-3a3.5,3.5,0,0,0-.66-2.22c-.77-1.49-2.08-3-2-4.8-3.62.4-7.1-.85-10.1.13-.25,1.26-1.2,2.29-.76,3.28-.29-.65-9,1.55-10.08,1.75a48.53,48.53,0,0,1-5,.75c-1.32.12-3.85-.49-4.59.82a3.68,3.68,0,0,0-.39,1.55,3,3,0,0,0,.1,1.21,2.42,2.42,0,0,0,1.5,1.39C489.84,502.15,497,498,504.31,498.08Z"/><g id="_Group_4" data-name="&lt;Group&gt;"><path id="_Path_9" data-name="&lt;Path&gt;" class="cls-9" d="M507.67,331.54l-24.73-.65c-.51-1.07,1.62-.15,1.6,1a542.49,542.49,0,0,0,9.94,111.35c3.07,15.79,6.87,31.59,6.93,47.68l10.15,0L515,340c.06-2.55,0-5.46-2-7.08C511.55,331.7,509.54,331.59,507.67,331.54Z"/><path id="_Path_10" data-name="&lt;Path&gt;" class="cls-9" d="M577.41,483.61A20.71,20.71,0,0,0,590.1,479L566,436.47a90,90,0,0,1-6.84-13.86A65.1,65.1,0,0,1,555.3,404c-3.47-69.52-3.47-69.52,1.72-84.49.68-1.95,13.31-9.1,0,0-4.89,3.34-23.42.6-29.28,1.46a5.62,5.62,0,0,0-3.54,1.41c-1,1.11.48,5-.8,4.25-10.45-6.15-3.47,2.21-1.91,21.54.55,6.8,7.71,50.11,9.76,56.61,3.61,11.5,8.49,23.38,15.83,32.95C558.39,452.47,565.95,466,577.41,483.61Z"/><path id="_Path_11" data-name="&lt;Path&gt;" class="cls-10" d="M569.11,233.15c-1.91-26.56-6.62-54-21.55-76.65-10.72-16.26-25.47-35.16-46.16-18.16-1.87,1.54-14.71-4.25-16-2.3a7.43,7.43,0,0,0-8.77,3.71c-7,12.32-9.53,25.92-10.65,39.9-1.29,16-1.68,32.19-2.16,48.26q-.34,11.18-.53,22.36c-2.88,19.93-4.31,40-1,60a7.1,7.1,0,0,0,1,2.62q.11,7.55.28,15.09c.07,3.22,2.48,7.45,6,7.94a264,264,0,0,0,94.08-3.8c3.64-.82,5.87-4.43,6-7.94A752.41,752.41,0,0,0,569.11,233.15Z"/><g id="_Group_5" data-name="&lt;Group&gt;"><path class="cls-5" d="M409.66,51.4c.51-3.49,1.93-7.16.51-10.4l-1.37.37-.7,2.08a16.8,16.8,0,0,0-1.35-5.2c-.7-1.6-2.1-3.31-3.86-3s-2.52,2.28-2.81,4c-1.37,7.86.43,15.86,2.22,23.62a27.12,27.12,0,0,0,8.35-1.66A20.12,20.12,0,0,1,409.66,51.4Z"/><g id="_Group_6" data-name="&lt;Group&gt;"><path id="_Path_12" data-name="&lt;Path&gt;" class="cls-10" d="M474.93,180.07c13.23,4.92,26.52-32.59,9.86-38.33-15.09-5.2-39.36-3.57-53.32-12.52a28.48,28.48,0,0,1-12.75-19.37q-4.57-25.11-7.9-50.37l-10.89.61.22,63.44c0,4.07.06,8.3,1.57,12.14s4.18,6.68,6.93,9.33C426.9,162.62,453.94,172.27,474.93,180.07Z"/><path id="_Path_13" data-name="&lt;Path&gt;" class="cls-11" d="M417,104.86a69.52,69.52,0,0,0-16.3,2.19.78.78,0,0,0,.4,1.51A105.69,105.69,0,0,1,417,106.07C417.75,106,417.81,104.87,417,104.86Z"/><path id="_Path_14" data-name="&lt;Path&gt;" class="cls-11" d="M442,163.48c-1.93-7.18-2.56-20.08,3.65-25.71.61-.55-.26-1.33-.88-.86-7.28,5.51-6.3,19.42-4.86,27.1C440.17,165.34,442.35,164.8,442,163.48Z"/><path id="_Path_15" data-name="&lt;Path&gt;" class="cls-11" d="M417.81,109.84c-2.24-.45-4.54.1-6.77.49-3.24.57-6.44,1.3-9.63,2.09a1.13,1.13,0,0,0,.58,2.19c2.39-.59,4.78-1.17,7.19-1.71,2.72-.61,5.62-1.64,8.42-1.7C418.39,111.18,418.63,110,417.81,109.84Z"/><path id="_Path_16" data-name="&lt;Path&gt;" class="cls-11" d="M451.33,165.94c-2.12-8.93-3.47-17.23,1.49-25.54a1,1,0,0,0-1.6-1.2c-7,7.59-4.8,18.47-2.69,27.47C448.94,168.45,451.75,167.72,451.33,165.94Z"/></g></g><path id="_Path_17" data-name="&lt;Path&gt;" class="cls-5" d="M510.71,122.33a23.29,23.29,0,0,0,2.79-11.95c-.11-8.75-1.19-17.71-5.17-25.34C503.75,76.26,493.14,68.1,483,71.42c-11.91,3.89-9.93,20.21-8.31,31,1.29,8.59,4.88,17.1,11.41,22.39C495.81,132.72,505.94,130.62,510.71,122.33Z"/><path id="_Path_18" data-name="&lt;Path&gt;" class="cls-7" d="M585.46,490.32c-.87,1.78,1.42,1.87,2.37,1.55a16.66,16.66,0,0,0,4.83-2.52,3.31,3.31,0,0,0,1-1,3.71,3.71,0,0,0,.31-1.09c.18-1,.89-2.84.68-3.85-.17-.83-1-1.37-1.62-1.9-1.41-1.14-3.88-3.21-4.59-5-3.4,2-8.57,4.29-11.11,6.57,1.39,1,1.52,1.89,2.39,2.68-.57-.52-8.25,5.48-9.18,6.13a52.37,52.37,0,0,1-4.65,2.95c-1.25.69-4,1.19-4.17,2.82a4,4,0,0,0,.29,1.7,3.29,3.29,0,0,0,.63,1.15,2.61,2.61,0,0,0,2.09.72C572.95,500.65,578.2,493.4,585.46,490.32Z"/><g id="_Group_7" data-name="&lt;Group&gt;"><path id="_Path_19" data-name="&lt;Path&gt;" class="cls-11" d="M535.62,161q-.79-1.76-1.6-3.52c-21.44,4.17-42.84,7.85-64.56,9.66-.13,1.18-.28,2.35-.4,3.53C491.53,169.17,513.89,165.55,535.62,161Z"/><path id="_Path_20" data-name="&lt;Path&gt;" class="cls-11" d="M466.57,235.67c0,1.14.08,2.27.12,3.41a648.85,648.85,0,0,0,88.78-12.54c-.27-1.45-.54-2.9-.82-4.35C525.64,228.28,496.4,233.18,466.57,235.67Z"/><path id="_Path_21" data-name="&lt;Path&gt;" class="cls-11" d="M472.73,302.2c.13.83.26,1.66.39,2.48,6.38-.77,12.7-1.64,18.9-2.48a616.92,616.92,0,0,0,70.1-13.76c-.05-1.19-.11-2.38-.17-3.56-18,4.65-36.32,8.67-55.13,11.94C496.07,298.69,484.51,300.7,472.73,302.2Z"/><path id="_Path_22" data-name="&lt;Path&gt;" class="cls-11" d="M466.93,246c0,.54.07,1.08.09,1.62,30.41-2.08,60.7-6.52,90-12-.11-.68-.23-1.36-.34-2-23.17,4-46.29,8-70,10.62C480.12,244.9,473.53,245.49,466.93,246Z"/><path id="_Path_23" data-name="&lt;Path&gt;" class="cls-11" d="M468.55,176.15c-.05.57-.1,1.13-.15,1.7,23.73-1.94,47.34-5.27,70.42-9.32-.28-.68-.54-1.37-.83-2.05-19.14,3.28-38.32,6.38-57.9,8.53Q474.33,175.63,468.55,176.15Z"/><path id="_Path_24" data-name="&lt;Path&gt;" class="cls-11" d="M474.85,314.57a365,365,0,0,0,87.67-16c0-.6,0-1.21-.06-1.81a380.21,380.21,0,0,1-88,15.77Q474.66,313.57,474.85,314.57Z"/></g><g id="_Group_8" data-name="&lt;Group&gt;"><path id="_Path_25" data-name="&lt;Path&gt;" class="cls-5" d="M435.66,240a12.77,12.77,0,0,0-3.76,1.82,4.33,4.33,0,0,0-1.79,3.61,2.65,2.65,0,0,0,2.82,2.45,1.36,1.36,0,0,0,.22,1.15c2.85.8,5.7-1,8.31-2.38a36.91,36.91,0,0,1,6.32-2.67c1.84-.59,3.92-1.17,4.9-2.84a5.09,5.09,0,0,0,.19-4.1,27.75,27.75,0,0,0-1.84-3.8l-10.29,1.91a3.54,3.54,0,0,0-1.59.57,1.22,1.22,0,0,0-.4,1.5,3.09,3.09,0,0,1,2,1Z"/><g id="_Group_9" data-name="&lt;Group&gt;"><path id="_Path_26" data-name="&lt;Path&gt;" class="cls-10" d="M540.36,163.45c-2.7-12.05-18.21-14.6-21.24.59-2.74,13.76-3.66,27.8-9.87,41.07a25.7,25.7,0,0,1-15.59,13.58Q472,225.93,450,232.12l1.89,9.36L508.07,233c3.61-.54,7.35-1.13,10.56-2.95a24.64,24.64,0,0,0,7.41-7.22C539.4,204.71,544.69,182.78,540.36,163.45Z"/><path id="_Path_27" data-name="&lt;Path&gt;" class="cls-11" d="M489.45,220.83a59.45,59.45,0,0,0,4,13.84.7.7,0,0,0,1.29-.55,90.39,90.39,0,0,1-4.17-13.44C490.35,220,489.35,220.12,489.45,220.83Z"/><path id="_Path_28" data-name="&lt;Path&gt;" class="cls-11" d="M538.3,191.51c-6.13,2.61-17.48,4.84-23.23.19-.56-.45-1.14.4-.65.87,5.78,5.59,18,2.93,24.62.67C540.17,192.86,539.42,191,538.3,191.51Z"/><path id="_Path_29" data-name="&lt;Path&gt;" class="cls-11" d="M493.76,219.47c-.12,2,.65,3.92,1.27,5.8.9,2.73,1.95,5.41,3,8.07a1,1,0,0,0,1.87-.79c-.82-2-1.62-4-2.4-6-.88-2.28-2.14-4.66-2.55-7.08C494.88,218.8,493.8,218.75,493.76,219.47Z"/><path id="_Path_30" data-name="&lt;Path&gt;" class="cls-11" d="M539.33,183.11c-7.65,3-14.84,5.26-22.81,2-.93-.37-1.73,1-.87,1.54,7.59,5.11,17,1.74,24.67-1.25C541.84,184.85,540.85,182.51,539.33,183.11Z"/></g></g></g></g><path id="_Path_31" data-name="&lt;Path&gt;" class="cls-12" d="M544.43,86.14a8.38,8.38,0,0,0-7-4.23c0-.14.05-.29.07-.43,3.45-2.91,4.75-8.22.66-12.86a11,11,0,0,0-3.53-2.75,61.88,61.88,0,0,0-12.81-7.46,9.64,9.64,0,0,0-1.13-.39,17.87,17.87,0,0,0-15.34-14.83,22.29,22.29,0,0,0-6.35,0c-8.62-4.28-18.57-.1-23.62,7.39a11.92,11.92,0,0,0-6.53,8.79l-.36.07c-7.5,1.93-12.32,9.72-10,17.13,1.17,3.66,4.63,6.75,8.66,6.59l5.74-.23a8.78,8.78,0,0,0,5.43-2.23c.39.19.8.37,1.21.52a15.12,15.12,0,0,0,4.24.93,13.24,13.24,0,0,0,5.32,4.49,20.3,20.3,0,0,0,14.34,1.13,12.3,12.3,0,0,0,1.2,1,12,12,0,0,0,2.06,1.25,19,19,0,0,0-1.92,3.75c-1.82,4.72,2.06,9.61,6.27,11a11,11,0,0,0,2.56.54c-1.79,4.7.52,11.15,5.88,12.28,6.85,1.45,13.5-.56,17.92-6.14,3.06-3.88,3.6-7.78,4-12.05C545.55,96.32,547.79,91.59,544.43,86.14Z"/><g id="_Group_10" data-name="&lt;Group&gt;"><path id="_Path_32" data-name="&lt;Path&gt;" class="cls-13" d="M458.63,3.86a73.66,73.66,0,0,1-4.11,8c-.66,1.06.89,1.93,1.62,1,1.83-2.38,3.72-4.75,5.35-7.27C462.69,3.75,459.52,1.94,458.63,3.86Z"/><path id="_Path_33" data-name="&lt;Path&gt;" class="cls-13" d="M431.18,11.16a15.47,15.47,0,0,0,3.35,2,14.25,14.25,0,0,0,3.91,1.76c.68.11,1.57-.57,1-1.31a12.79,12.79,0,0,0-3-2.6,17.57,17.57,0,0,0-3.7-2.41A1.56,1.56,0,0,0,431.18,11.16Z"/><path id="_Path_34" data-name="&lt;Path&gt;" class="cls-13" d="M442.45,1.49a22.87,22.87,0,0,0,1.05,4.79,11.56,11.56,0,0,0,1.62,4,.92.92,0,0,0,1.54-.37,10,10,0,0,0-.11-3.75,24.33,24.33,0,0,0-1-5C445-.43,442.33-.44,442.45,1.49Z"/></g></g><g id="_Group_11" data-name="&lt;Group&gt;"><path id="_Path_35" data-name="&lt;Path&gt;" class="cls-10" d="M284.38,375.43c1.41-31.22-1.55-63.06-1.3-94.48a74.34,74.34,0,0,1,4.4-32.22,5,5,0,0,1,1-1.77c1.47-1.51,4-.71,5.92.1a63.6,63.6,0,0,0,57.75-5c3.36,5.12,4.33,11.41,5.16,17.48,1.34,9.81,2.81,19.61,3.17,29.47v.06h0c.08,2.12.12,4.24.08,6.36-.23,12.29-2.61,24.4-4.46,36.51a172.43,172.43,0,0,0-2.37,23.86c-.08,6.55.84,12.54-.63,19-3.61,15.8-3.62,33-5.15,49.14-1.63,17.28-3.25,34.57-4.58,51.88l-.16,2.07c-.87.23-14.19,3.3-14.19-.15L325.8,376.9c-.45-14.14-.93-28.48-4.51-41.95l-4.43.44L292.51,468.77c-.71,3.91-1.58,8.14-4.16,10.66s-7.4,1.82-8.16-2.09C282.57,443.37,282.84,409.41,284.38,375.43Z"/><g id="_Group_12" data-name="&lt;Group&gt;"><path id="_Path_36" data-name="&lt;Path&gt;" class="cls-14" d="M332.9,483.53a62.57,62.57,0,0,1,15.27.64,56.87,56.87,0,0,0,12.62,7.1,9.8,9.8,0,0,1,3.64,2.06,3,3,0,0,1,.45,3.83c-.79.94-2.17,1-3.4,1.06a148.09,148.09,0,0,1-28.08-2.39,2.84,2.84,0,0,1-1.55-.62,2.58,2.58,0,0,1-.59-1.2A13.27,13.27,0,0,1,332.9,483.53Z"/><path id="_Path_37" data-name="&lt;Path&gt;" class="cls-14" d="M290.87,483a62.57,62.57,0,0,0-15.2,1.56,56.87,56.87,0,0,1-12.18,7.84A9.8,9.8,0,0,0,260,494.7a3,3,0,0,0-.22,3.85c.84.9,2.23.91,3.46.85a148.08,148.08,0,0,0,27.88-4.07,2.84,2.84,0,0,0,1.5-.71,2.58,2.58,0,0,0,.51-1.23A13.27,13.27,0,0,0,290.87,483Z"/><g id="_Group_13" data-name="&lt;Group&gt;"><path class="cls-15" d="M342.1,66.87a9.5,9.5,0,0,0-1.21-4.81c-1.46-2.13-4.31-2.69-6.87-3-10.95,0-21.75.5-32.78,1a4.56,4.56,0,0,0-2.65.69,4.09,4.09,0,0,0-1.24,2.63c-.77,4.53.7,9.27.63,13.9a75.89,75.89,0,0,0,.95,14.21c1.6,9.11,5.79,17.59,13.71,22.77a16.21,16.21,0,0,0,8.82,3c4.24,0,8.13-2.49,11.07-5.54C343.5,100.42,343.17,82.63,342.1,66.87Z"/><path class="cls-16" d="M331.21,110.85c-2.05,4.5-7.14,5.82-12.41,4.33-2.85-.81-6.5-3.46-9.45-3.74,2.27,3.07,5.38,6.28,9.12,7.06a11.89,11.89,0,0,0,10.61-2.87C330.39,114.35,331.92,112.54,331.21,110.85Z"/></g><path class="cls-16" d="M340.24,49.05c-3.54-2.72-8-3.34-12.31-3.54-4.73-.22-9.16-1.34-14-.58-2.48.39-4.91,1.11-7.42,1.31a10.21,10.21,0,0,1-7.16-1.72c-.85-.67-1.66-1.58-2.74-1.62-1.51-.06-2.46,1.59-3,3A48.14,48.14,0,0,0,291,69c.88,6.24,5.42,12.59,7.83,18.48a1.48,1.48,0,0,0,.37.6,1,1,0,0,0,1.43-.38,3.08,3.08,0,0,0,.3-1.63,46.12,46.12,0,0,1,1.81-13.34c1.65-5.22,3.28-3.12,7.91-3.43,6.95-.47,14.47-6.1,21.37-2.57,2.29,1.17,4,3.25,5.55,5.26,2.33,2.94,4.78,6.23,4.62,10,3.28-1.65,4-5.93,4.32-9.59C347.19,64,346.91,54.19,340.24,49.05Z"/><path class="cls-4" d="M366.66,229.12l-1.55-14c-3.23-29.23-6.54-58.8-16.44-86.4-2.45-6.84-8.7-14.69-15.32-7.66a17.87,17.87,0,0,1-2.93,2.63c-6.6,4.55-15.45,4.08-22.68,1.38-6.32-2.36-10.13-11.39-17.92-8-7.34,3.2-10.65,16-11.65,23.32-1.82,13.39-2.61,27.2-4,40.7-2.51,24.07-5,48.16-6,72.34-.41,10-.57,20.14-2.68,29.94,5.34,1.4,10.94,1,16.45,1,12.92,0,25.75,2,38.64,2.85,10.3.68,20.8.59,30.88-1.93,1.64-.41,20.93-4.52,20.82-5.51Z"/></g><path class="cls-6" d="M371.35,274.13c.3-.06.4-.22.23-.52a103.43,103.43,0,0,1-4.65-9.8,567,567,0,0,0-7.13-62.74c-4.53-25.51-14.28-49.17-20.1-74.26-1.71-7.38-10.52-6.72-13.81-1.56l-.76.16a31.88,31.88,0,0,0-10.41-6c-4.67-1.68-9.54,2.68-9.53,7.26,0,4.89-.07,9.79-.19,14.7a746.85,746.85,0,0,0-14.58,121.24s0,.09,0,.14q-.68,3.14-1.39,6.27a40.67,40.67,0,0,0-2.24,9.54l-.19.82a6.58,6.58,0,0,0,4.47,7.88,98.82,98.82,0,0,0,77.24-3.84,7.07,7.07,0,0,0,.92-.53l.64-.27,1.14-.88a5.54,5.54,0,0,0,1.54-3.23A5.92,5.92,0,0,0,371.35,274.13Z"/><g id="_Group_14" data-name="&lt;Group&gt;"><path id="_Path_38" data-name="&lt;Path&gt;" class="cls-5" d="M397.42,52.74a16.79,16.79,0,0,1,2.42-4.8c1-1.42,2.75-2.79,4.42-2.14s2,2.76,1.91,4.49c-.33,8-3.78,15.41-7.17,22.62a27.12,27.12,0,0,1-7.81-3.39,20.12,20.12,0,0,0,3-9.34c.24-3.52-.37-7.41,1.7-10.27l1.26.65Z"/><g id="_Group_15" data-name="&lt;Group&gt;"><path id="_Path_39" data-name="&lt;Path&gt;" class="cls-4" d="M293.08,179c-10.15,6.84-6.67-32.71-7.17-37.57-.58-5.63-1.44-15.09,3.35-19.38,8.46-7.6,31.53,1.46,41.61,2.59a81,81,0,0,0,32.61-3,20.12,20.12,0,0,0,6.65-3.09c5.24-4.11,20.21-51,21.26-50.67l10.51,2.9c-3.18,14.47-6.26,29-9.55,43.42-2.54,11.14-3,24.13-11,33-5.09,5.65-12.5,8.66-19.89,10.44C341.78,162.37,310.54,167.23,293.08,179Z"/></g></g><g id="_Group_16" data-name="&lt;Group&gt;"><path id="_Path_40" data-name="&lt;Path&gt;" class="cls-13" d="M267,26.9a73.64,73.64,0,0,1,1.4,8.91c.09,1.25,1.86,1,1.89-.16.07-3,.21-6,0-9C270.25,24.42,266.62,24.82,267,26.9Z"/><path id="_Path_41" data-name="&lt;Path&gt;" class="cls-13" d="M249.15,49a15.47,15.47,0,0,0,3.89-.35,14.25,14.25,0,0,0,4.19-.88c.61-.31.93-1.39.07-1.68a12.79,12.79,0,0,0-4-.31,17.58,17.58,0,0,0-4.41.23A1.56,1.56,0,0,0,249.15,49Z"/><path id="_Path_42" data-name="&lt;Path&gt;" class="cls-13" d="M252.57,34.52a22.86,22.86,0,0,0,3.67,3.25,11.56,11.56,0,0,0,3.67,2.29.92.92,0,0,0,1-1.21,10,10,0,0,0-2.3-3,24.33,24.33,0,0,0-3.74-3.5C253.51,31.46,251.33,33,252.57,34.52Z"/></g></g><g class="cls-17"><path id="_Path_43" data-name="&lt;Path&gt;" class="cls-18" d="M165.49,500.09c2.51-.87,3.24-1.93,1.09-3.22-1.72-1-6.72-.49-9-.54-10.68-.25-21.38-.44-32.1-.41-21.56.07-43.17.9-64.63,2.48-3.19.23-26.26,1.14-22.48,5.09,1.92,2,11.09.73,14.48.72l22.2-.09,44.41-.18C122.76,503.93,156.24,503.29,165.49,500.09Z"/></g><path class="cls-16" d="M122.15,496.25a9.12,9.12,0,0,0-3.38-1.92,52.92,52.92,0,0,1-11.75-6.6,58.23,58.23,0,0,0-14.21-.6,12.35,12.35,0,0,0-1.52,9.76,2.4,2.4,0,0,0,.55,1.12,2.65,2.65,0,0,0,1.44.58,137.81,137.81,0,0,0,26.13,2.22c1.14,0,2.44-.11,3.17-1A2.81,2.81,0,0,0,122.15,496.25Z"/><path class="cls-16" d="M74.9,495.91a8.91,8.91,0,0,0-3.4-1.7,51.74,51.74,0,0,1-11.81-5.85,56.94,56.94,0,0,0-13.9.14,12.08,12.08,0,0,0-1,9.6,2.35,2.35,0,0,0,.59,1.06,2.59,2.59,0,0,0,1.43.49,134.74,134.74,0,0,0,25.62.83,4,4,0,0,0,3-1.12A2.75,2.75,0,0,0,74.9,495.91Z"/><path class="cls-15" d="M121.29,296.69h0s0,0,0-.06c-.33-10-1.69-19.84-2.92-29.75-.77-6.13-1.66-12.47-4.76-17.64a54.27,54.27,0,0,1-53.26,5c-1.8-.81-4.11-1.62-5.46-.1A5.16,5.16,0,0,0,54,256a81.6,81.6,0,0,0-4.06,32.52c-.24,31.71,2.5,63.86,1.19,95.38-1.42,34.31-1.67,68.59-3.87,102.88.7,3.94,7.58,5.08,10,2.53S58,482,58.62,478.1L81.08,343.46l4.09-.45c3.31,13.6,3.75,28.08,4.16,42.35l3,101.74c0,3.48,12.28.39,13.08.15l.15-2.09c1.23-17.47,2.72-34.92,4.23-52.37,1.41-16.29,1.42-33.66,4.75-49.61,1.35-6.47.5-12.52.58-19.13A190,190,0,0,1,117.25,340c1.71-12.23,3.9-24.45,4.11-36.85C121.4,301,121.36,298.83,121.29,296.69Z"/><path class="cls-5" d="M85.93,121.86c-.46-7.23-3.6-14-6.79-20.49-2.58-5.24-5.38-10.62-10-14.17A6.24,6.24,0,0,0,66,85.74a7.39,7.39,0,0,0-2.91.53c-8.93,2.91-18,5.87-25.83,11a3.3,3.3,0,0,0-1.41,1.45,3.34,3.34,0,0,0,0,1.82c3.62,18.1,11.44,42,29.58,46.48,8.8-4.25,7.23-1,16.35-4.47C79.36,137.83,86.27,127.2,85.93,121.86Z"/><path class="cls-19" d="M107.27,136.81c-2.06-2.41-5.1-3.73-6.36-6.68A61.64,61.64,0,0,1,98,119.27a153.9,153.9,0,0,0-8.62-27.64,10.53,10.53,0,0,0-.47-1A10.68,10.68,0,0,0,85,77.13a18.24,18.24,0,0,0-5.61-2.32,11.91,11.91,0,0,0-6.92-1.44l-.74.09c-18.58-2-47.47,2.25-46.07,17.11a4.52,4.52,0,0,0-1.1,2.16c-.39,2.31.26,3.77,1.5,4.63a14.4,14.4,0,0,0-1.5,5.13,13.16,13.16,0,0,0-2.21,4c-2.17,6.3-1,13.23.93,19.42,1.79,5.69,4.9,10.93,5,17,.12,6.75-4.48,7.64-10.26,9.09C6.64,154.91.2,161.49,0,173.76-.09,179.41,1.45,185.53,5,190s9.21,9.79,14.34,12a9.61,9.61,0,0,0,6.72.25c9.69,1.64,19.79-.2,26.22-8.49a19.57,19.57,0,0,0,2.13-3.42,16.27,16.27,0,0,0,5.19-9.4,14.38,14.38,0,0,0-12.69-17.12,12.33,12.33,0,0,0-3.78-3.33c4.95-3.62,9.42-7.06,11.38-13.26,4.06-12.85-3.39-27.12-13.43-34.91-1.09-.85-.77-1.63-1.94-1.82-.08-.31-.16-.62-.23-.93,4.88-1,3.66-7.57,1.14-11.57a12.72,12.72,0,0,1,4.61-3.45c2,.1,3.94.36,5.28.56,3.64.52,7.12.94,10.81,1.22,4.69.36,9.67,1.64,14.5,1.75.11.15.23.31.33.45a2.23,2.23,0,0,0,.81.73A115.18,115.18,0,0,1,82,115.46a93.12,93.12,0,0,1,2.07,11.8,6.66,6.66,0,0,0-3.64,6c-.44,7,.72,14.67,4.36,20.77.91,1.53,2.46,2.93,3.17,4.56.18.41.43.5.62.48a10.67,10.67,0,0,0-1.25,1c-2.38,2.18-4.35,3.8-5,7.18-2.77,14.86,16.19,18.53,24.42,8.95C114.85,166.83,115.32,146.25,107.27,136.81Z"/><path class="cls-4" d="M128.67,340.22c0-9.12-1.31-18.3-2.05-27.38s-1.37-18.25-2.35-27.35c-1.94-17.92-4.38-35.82-7.15-53.6-4.66-30-13.34-59.94-35.36-79.3-6.36,1.62-13.08,1.89-19.86,1.92a9,9,0,0,0-.4,1.28C51.09,202,46.9,249.21,39.11,295.93c-1,5.92-2.4,12.1-3.53,18.28-2.33,6.48-5.53,13.5-6.34,20.59A11.42,11.42,0,0,0,28,337.87c-2.69,3.56-2.25,9.43,2.31,11.58a5.64,5.64,0,0,0,3,.51c.15.06.28.15.44.21,16.12,6,33.57,9.85,50.61,9.14a9.86,9.86,0,0,0,2.89-.55c5,.33,9.89.51,14.91.64,6.27.16,14.72,1.64,20.35-1.7,3.36-2,4.45-6.28,3.91-10.17A12.26,12.26,0,0,0,128.67,340.22Z"/><path class="cls-20" d="M80.65,107.45c-4-1.22-9.28.27-11.4,4a.66.66,0,0,0-.07.2c-1.87.51-3.77,1.12-5.67,1.45a7.38,7.38,0,0,0-8.83-2.1c-4.45,1.09-8.32,4.44-9,9.25-.81,6,7.56,7.55,12,6.45,5.09-1.27,9.08-7.14,6.67-12.27,0-.06-.07-.1-.1-.16,1.83-.62,3.77-1,5.63-1.51,1.69,5.93,13.15,9.18,15.45,2.43C86.5,111.72,83.84,108.43,80.65,107.45ZM55.89,125.5c-4.68.48-10.55-2-8-7.45a10.64,10.64,0,0,1,4.91-5,.7.7,0,0,0,1.15.3c3.4-2.89,9.24-1,9.58,3.76C63.8,121.56,60.1,125.07,55.89,125.5Zm28-11.07C82.4,120.08,70.07,117,71,111.54c0,0,0,0,0,0a10.38,10.38,0,0,1,6.48-2.93C80.78,108.44,84.91,110.59,83.9,114.43Z"/><path class="cls-5" d="M82.3,203.18c-9.51,5.33-34.15,19.15-45.47,17.94a330.42,330.42,0,0,0,27-30.9c6.18-8,4.3-20.9,2.45-30.1-1.21-6-7.89-5.76-11-2.11a5.81,5.81,0,0,0-4.79,3.76c-10.76,24.62-31.23,45.89-36.1,72.88-.67,3.68,1,8.63,5.29,9.32,26.52,4.27,44.87-23.49,66.66-33.45C95.1,206.49,85.73,201.25,82.3,203.18Z"/><path class="cls-5" d="M123.05,207.39c-1.37-2.17-2.25-4.51-3.84-6.58a27.43,27.43,0,0,0-5.53-5.29c-1.86-1.39-3.8.78-3.56,2.61a29.9,29.9,0,0,0,1.62,6.38c-2.4-.81-4.79-1.65-7.12-2.62l-.58-.05a6,6,0,0,1-4.7-2.57c-2.37-.11-4.55.31-6.1,1.79-3.55,3.39,15.51,14.28,17.73,16.15a11.61,11.61,0,0,0,3.65,2.41c4.75,1.57,9.52-5.16,7.87-9.5A1.89,1.89,0,0,0,123.05,207.39Z"/><path class="cls-5" d="M91.08,188a6.68,6.68,0,0,0-3.64-4.86,2.09,2.09,0,0,0-2.88,1.61l-.45,9.39-.86-.51c-1.66-1-3.33,1.15-2.8,2.68.92,2.66,2.64,4.16,4.24,6.35a1.9,1.9,0,0,0,2.58.73,2.11,2.11,0,0,0,3.17-.2,2,2,0,0,0,.46-1.71C92.34,196.88,93.4,192.08,91.08,188Z"/><path class="cls-5" d="M99.26,188.7a6.68,6.68,0,0,0-2.93-5.32,2.09,2.09,0,0,0-3.08,1.19l-1.75,9.23-.78-.63c-1.51-1.2-3.46.67-3.14,2.27.55,2.76,2,4.49,3.32,6.88a1.9,1.9,0,0,0,2.45,1.08,2.11,2.11,0,0,0,3.17.24,2,2,0,0,0,.7-1.62C99.27,197.68,101,193.07,99.26,188.7Z"/><path class="cls-13" d="M115.07,50.63a73.65,73.65,0,0,1-8.47,3.08c-1.21.33-.66,2,.51,1.82,3-.5,6-1,8.87-1.69C118.12,53.31,117,49.83,115.07,50.63Z"/><path class="cls-13" d="M92.86,36.49a1.56,1.56,0,0,0-2.88.82,15.5,15.5,0,0,0,1.09,3.75A14.25,14.25,0,0,0,92.74,45c.42.54,1.54.65,1.66-.25a12.79,12.79,0,0,0-.46-4A17.58,17.58,0,0,0,92.86,36.49Z"/><path class="cls-13" d="M104.82,37.89a22.87,22.87,0,0,0-2.48,4.22,11.56,11.56,0,0,0-1.54,4,.92.92,0,0,0,1.38.77,10,10,0,0,0,2.47-2.83,24.32,24.32,0,0,0,2.72-4.34C108,38.22,106,36.39,104.82,37.89Z"/></g></g></g></svg>