<svg xmlns="http://www.w3.org/2000/svg" xmlns:xlink="http://www.w3.org/1999/xlink" viewBox="0 0 193.12 57.22"><defs><style>.cls-1{fill:#a6a6a6;}.cls-10,.cls-2,.cls-3{fill:#fff;}.cls-2{stroke:#fff;stroke-miterlimit:10;stroke-width:0.29px;}.cls-4{fill:url(#linear-gradient);}.cls-5{fill:url(#linear-gradient-2);}.cls-6{fill:url(#linear-gradient-3);}.cls-7{fill:url(#linear-gradient-4);}.cls-8{opacity:0.2;}.cls-10,.cls-8,.cls-9{isolation:isolate;}.cls-9{opacity:0.12;}.cls-10{opacity:0.25;}</style><linearGradient id="linear-gradient" x1="31.18" y1="-4845.25" x2="7.18" y2="-4869.25" gradientTransform="matrix(1, 0, 0, -1, 0, -4832.79)" gradientUnits="userSpaceOnUse"><stop offset="0" stop-color="#00a0ff"/><stop offset="0.01" stop-color="#00a1ff"/><stop offset="0.26" stop-color="#00beff"/><stop offset="0.51" stop-color="#00d2ff"/><stop offset="0.76" stop-color="#00dfff"/><stop offset="1" stop-color="#00e3ff"/></linearGradient><linearGradient id="linear-gradient-2" x1="48.4" y1="-4861.4" x2="13.79" y2="-4861.4" gradientTransform="matrix(1, 0, 0, -1, 0, -4832.79)" gradientUnits="userSpaceOnUse"><stop offset="0" stop-color="#ffe000"/><stop offset="0.41" stop-color="#ffbd00"/><stop offset="0.78" stop-color="orange"/><stop offset="1" stop-color="#ff9c00"/></linearGradient><linearGradient id="linear-gradient-3" x1="35.51" y1="-4864.68" x2="2.96" y2="-4897.24" gradientTransform="matrix(1, 0, 0, -1, 0, -4832.79)" gradientUnits="userSpaceOnUse"><stop offset="0" stop-color="#ff3a44"/><stop offset="1" stop-color="#c31162"/></linearGradient><linearGradient id="linear-gradient-4" x1="10.44" y1="-4833.04" x2="24.98" y2="-4847.58" gradientTransform="matrix(1, 0, 0, -1, 0, -4832.79)" gradientUnits="userSpaceOnUse"><stop offset="0" stop-color="#32a071"/><stop offset="0.07" stop-color="#2da771"/><stop offset="0.48" stop-color="#15cf74"/><stop offset="0.8" stop-color="#06e775"/><stop offset="1" stop-color="#00f076"/></linearGradient></defs><title>playstore</title><g id="Layer_2" data-name="Layer 2"><g id="Layer_5" data-name="Layer 5"><rect width="193.12" height="57.22" rx="7.15" ry="7.15"/><path class="cls-1" d="M186,1.14a6,6,0,0,1,6,6V50.07a6,6,0,0,1-6,6H7.15a6,6,0,0,1-6-6V7.15a6,6,0,0,1,6-6H186M186,0H7.15A7.17,7.17,0,0,0,0,7.15V50.07a7.17,7.17,0,0,0,7.15,7.15H186a7.17,7.17,0,0,0,7.15-7.15V7.15A7.17,7.17,0,0,0,186,0Z"/><path class="cls-2" d="M67.83,14.65a3.87,3.87,0,0,1-1.07,2.87,4.16,4.16,0,0,1-3.15,1.27,4.42,4.42,0,0,1-4.46-4.48,4.42,4.42,0,0,1,4.46-4.48,4.43,4.43,0,0,1,1.76.36,3.54,3.54,0,0,1,1.34,1L66,11.9a2.9,2.9,0,0,0-2.35-1,3.32,3.32,0,0,0-3.33,3.43A3.37,3.37,0,0,0,66,16.78,2.7,2.7,0,0,0,66.73,15H63.61V14h4.16A3.64,3.64,0,0,1,67.83,14.65Z"/><path class="cls-2" d="M74.43,11.07H70.52v2.72H74v1H70.52v2.72h3.91V18.6h-5V10h5Z"/><path class="cls-2" d="M79.08,18.6H78V11.07h-2.4V10h5.9v1.05h-2.4Z"/><path class="cls-2" d="M85.74,18.6V10h1.1V18.6Z"/><path class="cls-2" d="M91.74,18.6h-1.1V11.07h-2.4V10h5.9v1.05h-2.4Z"/><path class="cls-2" d="M105.3,17.49a4.46,4.46,0,0,1-6.29,0,4.39,4.39,0,0,1-1.26-3.18A4.39,4.39,0,0,1,99,11.12a4.44,4.44,0,0,1,6.29,0,4.39,4.39,0,0,1,1.27,3.18A4.39,4.39,0,0,1,105.3,17.49Zm-5.48-.72a3.3,3.3,0,0,0,4.66,0,3.36,3.36,0,0,0,1-2.46,3.36,3.36,0,0,0-1-2.46,3.3,3.3,0,0,0-4.66,0,3.36,3.36,0,0,0-1,2.46A3.36,3.36,0,0,0,99.82,16.77Z"/><path class="cls-2" d="M108.11,18.6V10h1.34l4.17,6.68h0l0-1.65V10h1.1V18.6h-1.15l-4.36-7h0l0,1.65V18.6Z"/><path class="cls-3" d="M97.47,31.12a6.08,6.08,0,1,0,6.11,6.08A6,6,0,0,0,97.47,31.12Zm0,9.77a3.7,3.7,0,1,1,3.43-3.69A3.52,3.52,0,0,1,97.47,40.89ZM84.15,31.12a6.08,6.08,0,1,0,6.11,6.08A6,6,0,0,0,84.15,31.12Zm0,9.77a3.7,3.7,0,1,1,3.43-3.69A3.52,3.52,0,0,1,84.15,40.89ZM68.3,33v2.58h6.18a5.39,5.39,0,0,1-1.41,3.25A6.32,6.32,0,0,1,68.3,40.7,6.87,6.87,0,0,1,68.3,27,6.58,6.58,0,0,1,73,28.81L74.77,27a9,9,0,0,0-6.48-2.6,9.45,9.45,0,1,0,0,18.9,8.64,8.64,0,0,0,6.59-2.65,8.53,8.53,0,0,0,2.24-6A8.4,8.4,0,0,0,77,33Zm64.81,2a5.65,5.65,0,0,0-5.21-3.87,5.78,5.78,0,0,0-5.74,6.08,6,6,0,0,0,6,6.08,6.05,6.05,0,0,0,5.07-2.7L131.2,39.2a3.47,3.47,0,0,1-3,1.68A3.09,3.09,0,0,1,125.25,39l8.14-3.36Zm-8.3,2A3.34,3.34,0,0,1,128,33.47a2.36,2.36,0,0,1,2.26,1.29Zm-6.61,5.9h2.67V25H118.2Zm-4.38-10.44h-.09a4.22,4.22,0,0,0-3.2-1.36,6.09,6.09,0,0,0,0,12.17,4.15,4.15,0,0,0,3.2-1.38h.09v.88c0,2.33-1.24,3.57-3.25,3.57a3.37,3.37,0,0,1-3.06-2.17l-2.33,1a5.8,5.8,0,0,0,5.39,3.6c3.13,0,5.78-1.84,5.78-6.34V31.48h-2.54Zm-3.06,8.41a3.7,3.7,0,0,1,0-7.37A3.43,3.43,0,0,1,114,37.22,3.4,3.4,0,0,1,110.76,40.89ZM145.63,25h-6.4V42.92h2.67V36.14h3.73a5.56,5.56,0,1,0,0-11.11Zm.07,8.62h-3.8V27.52h3.8a3.07,3.07,0,1,1,0,6.13Zm16.5-2.57a5,5,0,0,0-4.76,2.74l2.37,1a2.53,2.53,0,0,1,2.44-1.31,2.57,2.57,0,0,1,2.81,2.3V36a5.9,5.9,0,0,0-2.78-.69c-2.55,0-5.15,1.4-5.15,4,0,2.39,2.09,3.93,4.44,3.93A3.77,3.77,0,0,0,165,41.5h.09v1.38h2.58V36C167.63,32.85,165.26,31.08,162.2,31.08Zm-.32,9.8c-.87,0-2.09-.44-2.09-1.52,0-1.38,1.52-1.91,2.83-1.91a4.76,4.76,0,0,1,2.44.6A3.24,3.24,0,0,1,161.88,40.88ZM177,31.47,174,39.23h-.09l-3.17-7.75h-2.88l4.76,10.84-2.71,6h2.78L180,31.47ZM153,42.92h2.67V25H153Z"/><path class="cls-4" d="M14.93,10.78a2.86,2.86,0,0,0-.66,2V44.43a2.86,2.86,0,0,0,.66,2l.11.1L32.76,28.82V28.4L15,10.68Z"/><path class="cls-5" d="M38.66,34.73l-5.91-5.91V28.4l5.91-5.91.13.08,7,4c2,1.14,2,3,0,4.13l-7,4Z"/><path class="cls-6" d="M38.8,34.65l-6-6L14.93,46.44c.66.7,1.75.78,3,.09L38.8,34.65"/><path class="cls-7" d="M38.8,22.57,17.9,10.7c-1.23-.7-2.31-.61-3,.09L32.76,28.61Z"/><path class="cls-8" d="M38.66,34.52,17.9,46.32a2.38,2.38,0,0,1-2.87,0h0l-.11.11h0l.11.1h0a2.38,2.38,0,0,0,2.87,0L38.8,34.65Z"/><path class="cls-9" d="M14.93,46.23a2.86,2.86,0,0,1-.66-2v.21a2.86,2.86,0,0,0,.66,2l.11-.11Z"/><path class="cls-9" d="M45.8,30.47l-7.13,4.05.13.13,7-4a2.51,2.51,0,0,0,1.5-2.06h0A2.66,2.66,0,0,1,45.8,30.47Z"/><path class="cls-10" d="M17.9,10.91,45.8,26.75a2.66,2.66,0,0,1,1.5,1.86h0a2.51,2.51,0,0,0-1.5-2.07L17.9,10.7c-2-1.14-3.63-.19-3.63,2.1V13C14.27,10.71,15.9,9.77,17.9,10.91Z"/></g></g></svg>