<svg xmlns="http://www.w3.org/2000/svg" xmlns:xlink="http://www.w3.org/1999/xlink" viewBox="0 0 420.43 415.29"><defs><style>.cls-1{fill:#f1f2f2;}.cls-2{fill:#f9ed32;}.cls-3{fill:#fbb040;}.cls-4{fill:#1c75bc;}.cls-5{fill:#00aeef;}.cls-6{fill:#00a651;}.cls-7{fill:none;}.cls-8{fill:#011b32;}.cls-9{fill:#8aa9d6;}.cls-10{fill:url(#linear-gradient);}.cls-11{fill:url(#linear-gradient-2);}.cls-12{fill:url(#linear-gradient-3);}.cls-13{fill:url(#linear-gradient-4);}.cls-14{fill:url(#linear-gradient-5);}.cls-15{fill:url(#linear-gradient-6);}.cls-16{fill:url(#linear-gradient-7);}.cls-17{fill:url(#linear-gradient-8);}.cls-18{fill:url(#linear-gradient-9);}.cls-19{fill:url(#linear-gradient-10);}.cls-20{fill:url(#linear-gradient-11);}.cls-21{fill:#83a3dc;}.cls-22{fill:#6d6e71;}.cls-23{fill:#aac5ef;}.cls-24{fill:#0aa;}.cls-25{fill:#2a3d56;}</style><linearGradient id="linear-gradient" x1="3873" y1="-5764.29" x2="3874.72" y2="-5764.29" gradientTransform="matrix(1, 0, 0, -1, -3790.19, -5424.56)" gradientUnits="userSpaceOnUse"><stop offset="0" stop-color="#283a52"/><stop offset="1" stop-color="#354f6e"/></linearGradient><linearGradient id="linear-gradient-2" x1="3877.52" y1="-5766.84" x2="3879.24" y2="-5766.84" xlink:href="#linear-gradient"/><linearGradient id="linear-gradient-3" x1="3882.02" y1="-5769.37" x2="3883.74" y2="-5769.37" xlink:href="#linear-gradient"/><linearGradient id="linear-gradient-4" x1="3886.07" y1="-5771.82" x2="3887.8" y2="-5771.82" xlink:href="#linear-gradient"/><linearGradient id="linear-gradient-5" x1="3890.09" y1="-5774.36" x2="3891.81" y2="-5774.36" xlink:href="#linear-gradient"/><linearGradient id="linear-gradient-6" x1="3897.95" y1="-5780.85" x2="3907.11" y2="-5780.85" xlink:href="#linear-gradient"/><linearGradient id="linear-gradient-7" x1="3919.93" y1="-5791.56" x2="3921.65" y2="-5791.56" xlink:href="#linear-gradient"/><linearGradient id="linear-gradient-8" x1="3924.45" y1="-5794.1" x2="3926.17" y2="-5794.1" xlink:href="#linear-gradient"/><linearGradient id="linear-gradient-9" x1="3928.95" y1="-5796.63" x2="3930.67" y2="-5796.63" xlink:href="#linear-gradient"/><linearGradient id="linear-gradient-10" x1="3933" y1="-5799.08" x2="3934.73" y2="-5799.08" xlink:href="#linear-gradient"/><linearGradient id="linear-gradient-11" x1="3937.02" y1="-5801.62" x2="3938.74" y2="-5801.62" xlink:href="#linear-gradient"/></defs><title>ppob</title><g id="Layer_2" data-name="Layer 2"><g id="Layer_1-2" data-name="Layer 1"><circle class="cls-1" cx="150.92" cy="127.05" r="29.82" transform="translate(-30.72 204.02) rotate(-63.06)"/><g id="Layer_2-2" data-name="Layer 2"><g id="Layer_1-2-2" data-name="Layer 1-2"><path id="_Compound_Path_" data-name=" Compound Path " class="cls-2" d="M148,143.2l-.55,1.09a2,2,0,0,1-2.34,1l-.77.86a1.39,1.39,0,0,1-1.66.31l-2.65-1.35a1.38,1.38,0,0,1-.73-1.52l.24-1.13A2,2,0,0,1,139,140l.56-1.1a1.18,1.18,0,0,1,1.58-.53h0l6.43,3.27A1.19,1.19,0,0,1,148,143.2ZM160.49,131a10.25,10.25,0,0,1-5.87,5.07,9.55,9.55,0,0,0-4.59,3.42,1.71,1.71,0,0,1-2.17.54l-5.68-2.88a1.69,1.69,0,0,1-.84-2.07,9.61,9.61,0,0,0,.06-5.77A10.34,10.34,0,1,1,160.52,131Zm-5.34-9.7a1.17,1.17,0,0,0-.51-1.57h0a7.47,7.47,0,0,0-10,3.25A1.17,1.17,0,1,0,146.7,124a5.13,5.13,0,0,1,6.89-2.25A1.17,1.17,0,0,0,155.16,121.28Zm2.36-7.22a1.16,1.16,0,0,0,1.57-.51h0l1.85-3.64a1.17,1.17,0,0,0-2.08-1.06L157,112.49a1.16,1.16,0,0,0,.51,1.57Zm-18.46,6a1.16,1.16,0,0,0-.51-1.57h0l-3.65-1.85a1.16,1.16,0,1,0-1.05,2.08l3.65,1.85a1.16,1.16,0,0,0,1.56-.51Zm29.69,13.78L165.11,132a1.16,1.16,0,0,0-1.05,2.08l3.64,1.85a1.16,1.16,0,1,0,1.05-2.08Zm-32-4.05-3.94,1.28a1.18,1.18,0,1,0,.75,2.23l3.94-1.28a1.18,1.18,0,0,0-.75-2.23Zm28.14-7.07a1.18,1.18,0,0,0,.9.06l3.94-1.29a1.16,1.16,0,1,0-.72-2.22h0l-3.94,1.28a1.16,1.16,0,0,0-.75,1.47h0a1.18,1.18,0,0,0,.58.67ZM145.57,112.5a1.16,1.16,0,0,0,2.22-.72l-1.28-3.94a1.18,1.18,0,1,0-2.23.75ZM157,140.1a1.17,1.17,0,1,0-2.23.72l1.29,3.94a1.16,1.16,0,1,0,2.25-.6,1,1,0,0,0,0-.13Z"/></g></g><circle class="cls-1" cx="32.77" cy="182.1" r="32.76" transform="translate(-152.26 181.93) rotate(-79.75)"/><g id="Layer_2-3" data-name="Layer 2"><g id="Layer_1-2-3" data-name="Layer 1-2"><path class="cls-3" d="M38.78,208.66s4.6.83,5.44-3.8l7.52-41.56c.87-4.6-3.77-5.44-3.77-5.44l-20.71-3.75s-4.62-.84-5.45,3.78l-7.52,41.56c-.84,4.63,3.78,5.46,3.78,5.46Zm-10-3.8A2.34,2.34,0,1,1,31.5,203h0A2.35,2.35,0,0,1,28.78,204.86Zm2.57-47.1a.52.52,0,0,1,.6-.41h0l10.54,1.91a.52.52,0,0,1,.42.6h0l0,.14a.51.51,0,0,1-.58.42h0l-10.54-1.91a.52.52,0,0,1-.42-.6Zm-7.45,1.7L49.23,164l-6.67,36.88-25.33-4.58Z"/><path class="cls-3" d="M43,181.48a1.19,1.19,0,0,1-.74-.47,13.07,13.07,0,0,0-18.15-3.28,1.15,1.15,0,0,1-1.31-1.9,15.31,15.31,0,0,1,21.32,3.83l0,0a1.18,1.18,0,0,1-.29,1.6A1.09,1.09,0,0,1,43,181.48Z"/><path class="cls-3" d="M39.61,183.85a1.17,1.17,0,0,1-.74-.47,8.91,8.91,0,0,0-12.39-2.24,1.15,1.15,0,0,1-1.31-1.89A11.15,11.15,0,0,1,40.69,182l0,0a1.17,1.17,0,0,1-.29,1.6A1,1,0,0,1,39.61,183.85Z"/><path class="cls-3" d="M36.31,186.14a1.19,1.19,0,0,1-.74-.47,4.9,4.9,0,0,0-6.75-1.22,1.15,1.15,0,0,1-1.31-1.89,7.18,7.18,0,0,1,10,1.81,1.18,1.18,0,0,1-.29,1.6A1.15,1.15,0,0,1,36.31,186.14Z"/><path class="cls-3" d="M31.27,190.13a1.72,1.72,0,0,1-1.1-.7,1.66,1.66,0,0,1-.27-1.28,1.72,1.72,0,0,1,.7-1.1,1.77,1.77,0,0,1,2.41.44,1.66,1.66,0,0,1,.27,1.28,1.72,1.72,0,0,1-.69,1.11A1.76,1.76,0,0,1,31.27,190.13Z"/></g></g><circle class="cls-1" cx="125.45" cy="214.8" r="24.37" transform="translate(-20.08 13.06) rotate(-5.52)"/><g id="Layer_2-4" data-name="Layer 2"><g id="Layer_1-2-4" data-name="Layer 1-2"><path class="cls-4" d="M134.79,232.69a3.36,3.36,0,0,0,3.08-3.75l-3-30.75c-.31-3.42-3.74-3.08-3.74-3.08l-15.33,1.48a3.36,3.36,0,0,0-3.09,3.74l3,30.75a3.36,3.36,0,0,0,3.75,3.09ZM127,232a1.71,1.71,0,1,1,1.54-1.87h0A1.72,1.72,0,0,1,127,232Zm-7.55-33.67a.38.38,0,0,1,.34-.42h0l7.8-.75a.38.38,0,0,1,.41.34h0v.1a.37.37,0,0,1-.32.41h0l-7.8.75a.38.38,0,0,1-.41-.34ZM114.54,201l18.75-1.81,2.64,27.29-18.75,1.81Z"/><path class="cls-4" d="M118.79,214.42l3.48-.34.58,6-3.48.34Z"/><path class="cls-4" d="M123.2,212.08l3.5-.34.76,7.87-3.5.34Z"/><path class="cls-4" d="M127.62,210l3.5-.34.92,9.47-3.5.34Z"/></g></g><circle class="cls-1" cx="144.86" cy="45.4" r="45.4" transform="translate(86.82 185.68) rotate(-84.92)"/><g id="Layer_2-5" data-name="Layer 2"><g id="Layer_1-2-5" data-name="Layer 1-2"><path class="cls-5" d="M147.84,12S121.3,39.76,120.13,53a24,24,0,0,0,47.74,4.24C169,44.15,147.84,12,147.84,12Zm-5.4,60.73a17.67,17.67,0,0,1-16-19.17,2.1,2.1,0,1,1,4.19.39,13.45,13.45,0,0,0,12.21,14.59,2.11,2.11,0,0,1-.37,4.19Z"/></g></g><circle class="cls-1" cx="66.09" cy="100.8" r="41.53" transform="translate(-5.97 4.18) rotate(-3.47)"/><g id="Layer_2-6" data-name="Layer 2"><g id="Layer_1-2-6" data-name="Layer 1-2"><g id="Layer_2-2-2" data-name="Layer 2-2"><g id="tampilan_menu_bawah" data-name="tampilan menu bawah"><path class="cls-6" d="M78.16,94.91,78,92.8a1,1,0,0,0-1-.9h0a13.07,13.07,0,0,1-10-3.11,1,1,0,0,0-1.33.08,13.16,13.16,0,0,1-9.53,4.29,1,1,0,0,0-.9,1h0l.13,2.11c.28,6.87.68,16.28,12.37,19.55a.94.94,0,0,0,.63,0C79.47,111.16,78.7,101.77,78.16,94.91Zm-10.35,19c-10-3-10.36-10.79-10.61-17.67L57.13,95a14.78,14.78,0,0,0,9.3-4.19,14.78,14.78,0,0,0,9.73,3L76.23,95C76.8,102,77.42,109.76,67.81,113.92Z"/><path class="cls-6" d="M71.26,97.5l-5.83,6.58-2.82-2.5a1.29,1.29,0,0,0-1.67,1.88l3.76,3.33a1.28,1.28,0,0,0,1.77-.11l6.67-7.52a1.29,1.29,0,1,0-1.5-2.09,1.31,1.31,0,0,0-.38.43Z"/><path class="cls-6" d="M42.22,91.11c-.51.92-1,1-1.16,4.74s2.44,7.62,2.44,7.62a4.91,4.91,0,0,1,.69-3.38c1.05-1.57,3.21-3.93,4.18-5.5a8.92,8.92,0,0,0,1.15-3.51h0a7.88,7.88,0,0,1-7.31,0Z"/><path class="cls-6" d="M42.22,91.11c-.51.92-1,1-1.16,4.74s2.44,7.62,2.44,7.62a4.91,4.91,0,0,1,.69-3.38c1.05-1.57,3.21-3.93,4.18-5.5a8.92,8.92,0,0,0,1.15-3.51h0a7.88,7.88,0,0,1-7.31,0Z"/><circle class="cls-6" cx="45.85" cy="84.23" r="5.56" transform="translate(-5.01 2.93) rotate(-3.47)"/><circle class="cls-6" cx="45.85" cy="84.23" r="5.56" transform="translate(-5.01 2.93) rotate(-3.47)"/><path class="cls-6" d="M51.89,79.17S56,75.85,60.21,75s10.46-.21,10.46-.21a13.36,13.36,0,0,0-4.73,1.58c-1.78,1.19-3.15,2.94-5.21,5a23.88,23.88,0,0,1-5.08,4.28,6.14,6.14,0,0,1-2.3.74,7.89,7.89,0,0,0-1.53-7.27Z"/><path class="cls-6" d="M51.89,79.17S56,75.85,60.21,75s10.46-.21,10.46-.21a13.36,13.36,0,0,0-4.73,1.58c-1.78,1.19-3.15,2.94-5.21,5a23.88,23.88,0,0,1-5.08,4.28,6.14,6.14,0,0,1-2.3.74,7.89,7.89,0,0,0-1.53-7.27Z"/><path class="cls-6" d="M50.18,128.79a5.56,5.56,0,1,0-5.89-5.21,5.56,5.56,0,0,0,5.89,5.21Z"/><path class="cls-6" d="M50.18,128.79a5.56,5.56,0,1,0-5.89-5.21,5.56,5.56,0,0,0,5.89,5.21Z"/><path class="cls-6" d="M44.78,117.18s-3.34-4.08-4.2-8.35-.16-10.44-.16-10.44A13.24,13.24,0,0,0,42,103.12c1.19,1.78,2.94,3.15,5,5.21a23.86,23.86,0,0,1,4.31,5,6.2,6.2,0,0,1,.74,2.3,7.89,7.89,0,0,0-7.28,1.53Z"/><path class="cls-6" d="M44.78,117.18s-3.34-4.08-4.2-8.35-.16-10.44-.16-10.44A13.24,13.24,0,0,0,42,103.12c1.19,1.78,2.94,3.15,5,5.21a23.86,23.86,0,0,1,4.31,5,6.2,6.2,0,0,1,.74,2.3,7.89,7.89,0,0,0-7.28,1.53Z"/><path class="cls-6" d="M91.94,112.37c.5-.92,1-.95,1.16-4.74S90.67,100,90.67,100a4.91,4.91,0,0,1-.69,3.38c-1.06,1.57-3.21,3.93-4.18,5.5a8.94,8.94,0,0,0-1.17,3.5,7.89,7.89,0,0,1,7.31,0Z"/><path class="cls-6" d="M91.94,112.37c.5-.92,1-.95,1.16-4.74S90.67,100,90.67,100a4.91,4.91,0,0,1-.69,3.38c-1.06,1.57-3.21,3.93-4.18,5.5a8.94,8.94,0,0,0-1.17,3.5,7.89,7.89,0,0,1,7.31,0Z"/><circle class="cls-6" cx="88.31" cy="119.24" r="5.56" transform="translate(-7.05 5.56) rotate(-3.47)"/><path class="cls-6" d="M82.27,124.3s-4.08,3.34-8.32,4.2-10.47.21-10.47.21a13.25,13.25,0,0,0,4.72-1.58c1.78-1.19,3.15-2.94,5.21-5a23.8,23.8,0,0,1,5-4.3A6.17,6.17,0,0,1,80.7,117a7.9,7.9,0,0,0,1.57,7.27Z"/><path class="cls-6" d="M82.27,124.3s-4.08,3.34-8.32,4.2-10.47.21-10.47.21a13.25,13.25,0,0,0,4.72-1.58c1.78-1.19,3.15-2.94,5.21-5a23.8,23.8,0,0,1,5-4.3A6.17,6.17,0,0,1,80.7,117a7.9,7.9,0,0,0,1.57,7.27Z"/><path class="cls-6" d="M77.45,76.63c-.92-.5-1-1-4.75-1.16s-7.61,2.44-7.61,2.44a4.91,4.91,0,0,1,3.38.69C70,79.64,72.4,81.79,74,82.76a8.88,8.88,0,0,0,3.5,1.14h0a7.89,7.89,0,0,1,0-7.31Z"/><path class="cls-6" d="M77.45,76.63c-.92-.5-1-1-4.75-1.16s-7.61,2.44-7.61,2.44a4.91,4.91,0,0,1,3.38.69C70,79.64,72.4,81.79,74,82.76a8.88,8.88,0,0,0,3.5,1.14h0a7.89,7.89,0,0,1,0-7.31Z"/><path class="cls-6" d="M84.65,85.81a5.56,5.56,0,1,0-5.91-5.21h0A5.58,5.58,0,0,0,84.65,85.81Z"/><path class="cls-6" d="M84.65,85.81a5.56,5.56,0,1,0-5.91-5.21h0A5.58,5.58,0,0,0,84.65,85.81Z"/><path class="cls-6" d="M89.38,86.29s3.33,4.08,4.22,8.32.21,10.47.21,10.47a13.32,13.32,0,0,0-1.64-4.72c-1.19-1.78-2.94-3.15-5-5.21a23.81,23.81,0,0,1-4.3-5,6.18,6.18,0,0,1-.74-2.29A7.89,7.89,0,0,0,89.38,86.29Z"/><path class="cls-6" d="M89.38,86.29s3.33,4.08,4.22,8.32.21,10.47.21,10.47a13.32,13.32,0,0,0-1.64-4.72c-1.19-1.78-2.94-3.15-5-5.21a23.81,23.81,0,0,1-4.3-5,6.18,6.18,0,0,1-.74-2.29A7.89,7.89,0,0,0,89.38,86.29Z"/><path class="cls-6" d="M56.72,126.85c.92.5.95,1,4.74,1.16s7.61-2.44,7.61-2.44a4.92,4.92,0,0,1-3.38-.69c-1.57-1.05-3.93-3.21-5.5-4.18a8.91,8.91,0,0,0-3.51-1.14h0a7.89,7.89,0,0,1,0,7.31Z"/></g></g></g></g><circle class="cls-1" cx="194.22" cy="168.94" r="20.16" transform="matrix(0.09, -1, 1, 0.09, 8.75, 347.44)"/><rect class="cls-7" x="44.43" y="158.29" width="376" height="257"/><path class="cls-1" d="M186.48,386.18l200.38-115a8.44,8.44,0,0,0,0-14.62l-76.27-44a32.6,32.6,0,0,0-32.5,0L77.91,327.31a8.44,8.44,0,0,0,0,14.61l76,44.17A32.6,32.6,0,0,0,186.48,386.18Z"/><circle class="cls-1" cx="379.7" cy="258.27" r="14.63"/><circle class="cls-1" cx="85.16" cy="329.06" r="14.63"/><path class="cls-1" d="M186.48,375.16l200.38-115a8.44,8.44,0,0,0,0-14.62l-76.27-44a32.6,32.6,0,0,0-32.5,0L77.91,316.29a8.44,8.44,0,0,0,0,14.61l76,44.17A32.6,32.6,0,0,0,186.48,375.16Z"/><path class="cls-8" d="M186.51,373.54,385.6,259.3a8.32,8.32,0,0,0,0-14.43l-75.26-43.41a32.17,32.17,0,0,0-32.07,0l-198.91,114a8.32,8.32,0,0,0,0,14.42l75,43.59A32.17,32.17,0,0,0,186.51,373.54Z"/><polygon class="cls-1" points="200.43 359.39 367.97 265.57 273.57 211.12 106.28 304.68 200.43 359.39"/><path class="cls-9" d="M82.91,341.46h0c.7.6,1.63-.08,1.63-1.21h0a3,3,0,0,0-.91-2.25h0c-.7-.6-1.63.08-1.63,1.21h0A3,3,0,0,0,82.91,341.46Z"/><path class="cls-10" d="M83.62,338h0c-.06,0-.12,0-.18-.07a1.46,1.46,0,0,0-.63,1.28,3,3,0,0,0,.91,2.25c.06,0,.12,0,.18.07a1.46,1.46,0,0,0,.63-1.28A3,3,0,0,0,83.62,338Z"/><path class="cls-9" d="M87.43,344h0c.7.6,1.63-.08,1.63-1.21h0a3,3,0,0,0-.91-2.25h0c-.7-.6-1.63.08-1.63,1.21h0A3,3,0,0,0,87.43,344Z"/><path class="cls-11" d="M88.14,340.55h0c-.06,0-.12,0-.18-.07a1.46,1.46,0,0,0-.63,1.28,3,3,0,0,0,.91,2.25c.06,0,.12,0,.18.07a1.46,1.46,0,0,0,.63-1.28A3,3,0,0,0,88.14,340.55Z"/><path class="cls-9" d="M91.93,346.54h0c.7.6,1.63-.08,1.63-1.21h0a3,3,0,0,0-.91-2.25h0c-.7-.6-1.63.08-1.63,1.21h0A3,3,0,0,0,91.93,346.54Z"/><path class="cls-12" d="M92.64,343.08h0c-.06,0-.12,0-.18-.07a1.46,1.46,0,0,0-.63,1.28,3,3,0,0,0,.91,2.25c.06,0,.12,0,.18.07a1.46,1.46,0,0,0,.63-1.28A3,3,0,0,0,92.64,343.08Z"/><path class="cls-9" d="M96,349h0c.7.6,1.63-.08,1.63-1.21h0a3,3,0,0,0-.91-2.25h0c-.7-.6-1.63.08-1.63,1.21h0A3,3,0,0,0,96,349Z"/><path class="cls-13" d="M96.69,345.53h0c-.06,0-.12,0-.18-.07a1.46,1.46,0,0,0-.63,1.28A3,3,0,0,0,96.8,349c.06,0,.12,0,.18.07a1.46,1.46,0,0,0,.63-1.28A3,3,0,0,0,96.69,345.53Z"/><path class="cls-9" d="M100,351.53h0c.7.6,1.63-.08,1.63-1.21h0a3,3,0,0,0-.91-2.25h0c-.7-.6-1.63.08-1.63,1.21h0A3,3,0,0,0,100,351.53Z"/><path class="cls-14" d="M100.7,348.07h0c-.06,0-.12,0-.18-.07a1.46,1.46,0,0,0-.63,1.28,3,3,0,0,0,.91,2.25c.06,0,.12,0,.18.07a1.46,1.46,0,0,0,.63-1.28A3,3,0,0,0,100.7,348.07Z"/><path class="cls-9" d="M116,357.15l-.13-.08h0l-7.55-4.71h0c-.68-.43-1.5.22-1.5,1.29a3,3,0,0,0,.91,2.25l.13.08h0l7.54,4.71h0c.69.44,1.51-.21,1.51-1.28A3,3,0,0,0,116,357.15Z"/><path class="cls-9" d="M116,357.15l-.13-.08h0l-7.55-4.71h0c-.68-.43-1.5.22-1.5,1.29a3,3,0,0,0,.91,2.25l.13.08h0l7.54,4.71h0c.69.44,1.51-.21,1.51-1.28A3,3,0,0,0,116,357.15Z"/><path class="cls-15" d="M116.92,359.4a3,3,0,0,0-.91-2.25l-.13-.08h0l-7.55-4.71h0a.84.84,0,0,0-.31-.11,1.69,1.69,0,0,0-.26.93,3,3,0,0,0,.91,2.25l.13.08h0l7.54,4.71h0a.85.85,0,0,0,.31.12A1.69,1.69,0,0,0,116.92,359.4Z"/><path class="cls-9" d="M129.84,368.72h0c.7.6,1.63-.08,1.63-1.21h0a3,3,0,0,0-.91-2.25h0c-.7-.6-1.63.08-1.63,1.21h0A3,3,0,0,0,129.84,368.72Z"/><path class="cls-16" d="M130.55,365.27h0c-.06,0-.12,0-.18-.07a1.46,1.46,0,0,0-.63,1.28,3,3,0,0,0,.91,2.25c.06,0,.12,0,.18.07a1.46,1.46,0,0,0,.63-1.28A3,3,0,0,0,130.55,365.27Z"/><path class="cls-9" d="M134.36,371.26h0c.7.6,1.63-.08,1.63-1.21h0a3,3,0,0,0-.91-2.25h0c-.7-.6-1.63.08-1.63,1.21h0A3,3,0,0,0,134.36,371.26Z"/><path class="cls-17" d="M135.07,367.81h0c-.06,0-.12,0-.18-.07a1.46,1.46,0,0,0-.63,1.28,3,3,0,0,0,.91,2.25c.06,0,.12,0,.18.07a1.46,1.46,0,0,0,.63-1.28A3,3,0,0,0,135.07,367.81Z"/><path class="cls-9" d="M138.86,373.8h0c.7.6,1.63-.08,1.63-1.21h0a3,3,0,0,0-.91-2.25h0c-.7-.6-1.63.08-1.63,1.21h0A3,3,0,0,0,138.86,373.8Z"/><path class="cls-18" d="M139.57,370.34h0c-.06,0-.12,0-.18-.07a1.46,1.46,0,0,0-.63,1.28,3,3,0,0,0,.91,2.25c.06,0,.12,0,.18.07a1.46,1.46,0,0,0,.63-1.28A3,3,0,0,0,139.57,370.34Z"/><path class="cls-9" d="M142.91,376.25h0c.7.6,1.63-.08,1.63-1.21h0a3,3,0,0,0-.91-2.25h0c-.7-.6-1.63.08-1.63,1.21h0A3,3,0,0,0,142.91,376.25Z"/><path class="cls-19" d="M143.62,372.79h0c-.06,0-.12,0-.18-.07a1.46,1.46,0,0,0-.63,1.28,3,3,0,0,0,.91,2.25c.06,0,.12,0,.18.07a1.46,1.46,0,0,0,.63-1.28A3,3,0,0,0,143.62,372.79Z"/><path class="cls-9" d="M146.92,378.79h0c.7.6,1.63-.08,1.63-1.21h0a3,3,0,0,0-.91-2.25h0c-.7-.6-1.63.08-1.63,1.21h0A3,3,0,0,0,146.92,378.79Z"/><path class="cls-20" d="M147.64,375.33h0c-.06,0-.12,0-.18-.07a1.46,1.46,0,0,0-.63,1.28,3,3,0,0,0,.91,2.25c.06,0,.12,0,.18.07a1.46,1.46,0,0,0,.63-1.28A3,3,0,0,0,147.64,375.33Z"/><polygon class="cls-21" points="200.34 378.22 197.05 380.11 197.05 369.09 200.34 367.2 200.34 378.22"/><polygon class="cls-22" points="374.84 278.05 371.55 279.94 371.55 268.92 374.84 267.03 374.84 278.05"/><ellipse class="cls-23" cx="132.55" cy="339.84" rx="15.58" ry="7.17"/><ellipse class="cls-24" cx="132.55" cy="339.84" rx="14.31" ry="6.41"/><path class="cls-25" d="M340.26,233.55l0,0a.93.93,0,0,0,0-1.6l-14.65-8.5a3.57,3.57,0,0,0-3.56,0h0a.93.93,0,0,0,0,1.6l14.62,8.52A3.57,3.57,0,0,0,340.26,233.55Z"/><circle class="cls-1" cx="72.65" cy="224.75" r="20.16" transform="translate(-157.65 277.23) rotate(-84.92)"/><circle class="cls-1" cx="94.37" cy="166.24" r="20.15" transform="translate(-79.58 245.53) rotate(-84.92)"/><circle class="cls-1" cx="152.02" cy="176.67" r="13.94" transform="translate(-37.42 312.46) rotate(-84.92)"/><circle class="cls-1" cx="165.83" cy="242.86" r="13.12" transform="translate(-90.75 386.55) rotate(-84.92)"/></g></g></svg>