<svg xmlns="http://www.w3.org/2000/svg" viewBox="0 0 489.23 536.29"><defs><style>.cls-1{opacity:0.1;}.cls-2{fill:#472d1f;}.cls-3{fill:#ffddbf;}.cls-4{fill:#414042;}.cls-5{fill:#fddcbe;}.cls-6{fill:#01725d;}.cls-7{fill:#ededed;}.cls-8{font-size:55.74px;fill:#fff;font-family:NewComicBD, New Comic BD;}</style></defs><title>thief</title><g id="Layer_2" data-name="Layer 2"><g id="Layer_1-2" data-name="Layer 1"><ellipse class="cls-1" cx="243.12" cy="507.06" rx="169.2" ry="29.23"/><path class="cls-2" d="M111.49,449.22l2.64,29.31-16.66-6.38s-19.6,25-5.9,30.05,9-17.74,9-17.74,18.15,10.72,28.51,10.07,6.17-24,6.17-24,123.66,5,219.6-38.36c0,0,8.37,35.7,8.24,49.06,0,0,39.1-3.93,37.71-22.84s-26.41,5.23-26.41,5.23,2-36.35-2.35-45.7-25.67,2.84-25.67,2.84Z"/><path class="cls-3" d="M153.52,93.07S292.08,46.13,334.15,237.8c-23.22,15.3-116,47.53-266.46,52.89l-1.8.21C56.86,212.79,69.68,128,153.52,93.07Z"/><path class="cls-2" d="M84,122.55S89.45,20.84,176,38c75.79,15,125.3,21.44,151.43-38,0,0,17.43,169-203.06,154.11,0,0-7.43,36.77-11.28,53.59,0,0-13.1-12.64-19.38,4.62-5.08,13.94,15.3,13.34,15.3,13.34s-8,42.23-43.27,64.22C65.78,289.88-8,91,84,122.55Z"/><path class="cls-4" d="M334.15,237.8c-19.05,11.82-125.37,45.78-268.25,53.1,20.81,107.59,45.6,158.32,45.6,158.32,140.19,2.52,233-28.51,233-28.51C352.88,317.52,334.22,238.11,334.15,237.8Z"/><path class="cls-4" d="M52.58,421.9s-66.87-92.36,24.79-103.53l-5-26.52S-57.37,313.9,30.59,434.34l5.2,8.37L54.86,424.8Z"/><path class="cls-5" d="M54.86,424.8,35.79,442.71l6.32,10.18c1,1.5,4.26,5.68,7.29,3.84,1.45-.88,1.49-2.57,1.1-4.17,1.34,1.06,3,1.71,4.51.76,1.31-.8,1.46-2.25,1.2-3.71,1.26.88,2.71,1.33,4.12.47s1.49-2.57,1.1-4.17c1.34,1.06,2.95,1.71,4.51.76,3.24-2-1-8.9-1.74-10Z"/><path class="cls-4" d="M450.81,253.09c-18.63-30.53-122.86-9.5-122.86-9.5l9.87,25.13c60.64-12.61,81.84-13.46,90.81-4.28,14,24.39-11.71,28.59-11.71,28.59l-1.8,0,5,25.06,1.07-.17C466.38,310.77,464.84,278.1,450.81,253.09Z"/><path class="cls-6" d="M409.57,293.18c-.32-25.49,32.34-28.77,33.38-37.81,1-8.87-20.5,4.67-13.59-6.49,4.75-7.66,5.25-17.47-5.18-9s-6.18,0-6.18,0,10.7-28.14-9.45-5.56c-25.31,28.36-8,62.2-8,62.2s5.51,10.18,2.32,21.6c0,0-51.53,65.62-2.09,105.23s82.28,1,87.49-21.89c3.93-17.29-3.49-51.16-40.13-65.15s-36.64-14-34.92-22.41Z"/><path class="cls-2" d="M114.62,186.73s132.38-16.16,180.84-49c0,0,41.69,48.47-12.51,66.19-49.66,16.24-53.6-11.09-62.93-7.45s2,27.26-47,38.21-59.86-29.06-59.86-29.06Z"/><path class="cls-7" d="M238,187.07s47.18,17.46,46.56-29.88Z"/><path class="cls-7" d="M197.91,196.39s-27.46,42.15-55.19,3.77Z"/><path class="cls-5" d="M403.44,293.3c-1.3.09-9.34,1.18-8.83,4.94.25,1.81,1.77,2.65,3.43,3-1.49.71-2.77,1.8-2.54,3.48s1.49,2.48,3,2.9c-1.3.71-2.33,1.74-2.12,3.26.24,1.81,1.77,2.65,3.43,3-1.49.7-2.77,1.8-2.54,3.48.48,3.52,5.77,3.39,7.57,3.24l15.28-2.53-5-25.06Z"/><path class="cls-2" d="M195.38,234.7s63,20.12,63-8C234,236.88,195.38,234.7,195.38,234.7Z"/><text class="cls-8" transform="translate(400 404.33)">Rp</text></g></g></svg>